<svg width="20" height="16" viewBox="0 0 20 16" fill="none" xmlns="http://www.w3.org/2000/svg">
<path d="M10 12C11.1 12 12.0417 11.6083 12.825 10.825C13.6083 10.0417 14 9.1 14 8C14 6.9 13.6083 5.95833 12.825 5.175C12.0417 4.39167 11.1 4 10 4C8.9 4 7.95833 4.39167 7.175 5.175C6.39167 5.95833 6 6.9 6 8C6 9.1 6.39167 10.0417 7.175 10.825C7.95833 11.6083 8.9 12 10 12ZM2 16C1.45 16 0.979167 15.8042 0.5875 15.4125C0.195833 15.0208 0 14.55 0 14V2C0 1.45 0.195833 0.979167 0.5875 0.5875C0.979167 0.195833 1.45 0 2 0H18C18.55 0 19.0208 0.195833 19.4125 0.5875C19.8042 0.979167 20 1.45 20 2V14C20 14.55 19.8042 15.0208 19.4125 15.4125C19.0208 15.8042 18.55 16 18 16H2Z" fill="#4276EE"/>
</svg>
