<svg width="24" height="24" viewBox="0 0 24 24" fill="none" xmlns="http://www.w3.org/2000/svg">
<path fill-rule="evenodd" clip-rule="evenodd" d="M10.4201 2.4C10.6701 2.31 10.9301 2.25 11.1901 2.25C11.5824 2.25257 11.9649 2.37317 12.2877 2.59612C12.6106 2.81906 12.8588 3.13402 13.0001 3.5L18.0001 15.45C18.0901 15.71 18.1401 16 18.1301 16.25C18.1187 16.6363 17.9968 17.0111 17.7788 17.3302C17.5608 17.6492 17.2558 17.899 16.9001 18.05L9.53013 21.1C9.27013 21.22 9.00013 21.25 8.74013 21.25C8.34928 21.2414 7.96953 21.1183 7.64785 20.8962C7.32616 20.674 7.07664 20.3625 6.93013 20L1.97013 8.05C1.77003 7.56066 1.77244 7.01189 1.97684 6.52433C2.18124 6.03678 2.57089 5.65035 3.06013 5.45L10.4201 2.4ZM18.1201 10.6L14.6701 2.25H16.1201C16.6506 2.25 17.1593 2.46071 17.5343 2.83579C17.9094 3.21086 18.1201 3.71957 18.1201 4.25V10.6ZM20.1301 12.82V3.79L21.4701 4.36C21.7127 4.45877 21.9334 4.60446 22.1196 4.78871C22.3057 4.97295 22.4537 5.19214 22.5549 5.43369C22.6562 5.67524 22.7088 5.93441 22.7097 6.19633C22.7106 6.45825 22.6598 6.71777 22.5601 6.96L20.1301 12.82Z" fill="#2B65EC"/>
</svg>
