<svg width="21" height="20" viewBox="0 0 21 20" fill="none" xmlns="http://www.w3.org/2000/svg">
<mask id="mask0_172_1897" style="mask-type:alpha" maskUnits="userSpaceOnUse" x="0" y="0" width="21" height="20">
<rect x="0.810059" width="20" height="20" fill="#D9D9D9"/>
</mask>
<g mask="url(#mask0_172_1897)">
<path d="M4.97673 18.3333C4.51839 18.3333 4.12603 18.1701 3.79964 17.8437C3.47325 17.5173 3.31006 17.125 3.31006 16.6666V4.99996C3.31006 4.54163 3.47325 4.14926 3.79964 3.82288C4.12603 3.49649 4.51839 3.33329 4.97673 3.33329H5.81006V1.66663H7.47673V3.33329H14.1434V1.66663H15.8101V3.33329H16.6434C17.1017 3.33329 17.4941 3.49649 17.8205 3.82288C18.1469 4.14926 18.3101 4.54163 18.3101 4.99996V16.6666C18.3101 17.125 18.1469 17.5173 17.8205 17.8437C17.4941 18.1701 17.1017 18.3333 16.6434 18.3333H4.97673ZM4.97673 16.6666H16.6434V8.33329H4.97673V16.6666ZM4.97673 6.66663H16.6434V4.99996H4.97673V6.66663ZM10.8101 11.6666C10.5739 11.6666 10.376 11.5868 10.2163 11.427C10.0566 11.2673 9.97673 11.0694 9.97673 10.8333C9.97673 10.5972 10.0566 10.3993 10.2163 10.2395C10.376 10.0798 10.5739 9.99996 10.8101 9.99996C11.0462 9.99996 11.2441 10.0798 11.4038 10.2395C11.5635 10.3993 11.6434 10.5972 11.6434 10.8333C11.6434 11.0694 11.5635 11.2673 11.4038 11.427C11.2441 11.5868 11.0462 11.6666 10.8101 11.6666ZM7.47673 11.6666C7.24061 11.6666 7.0427 11.5868 6.88298 11.427C6.72325 11.2673 6.64339 11.0694 6.64339 10.8333C6.64339 10.5972 6.72325 10.3993 6.88298 10.2395C7.0427 10.0798 7.24061 9.99996 7.47673 9.99996C7.71284 9.99996 7.91075 10.0798 8.07048 10.2395C8.2302 10.3993 8.31006 10.5972 8.31006 10.8333C8.31006 11.0694 8.2302 11.2673 8.07048 11.427C7.91075 11.5868 7.71284 11.6666 7.47673 11.6666ZM14.1434 11.6666C13.9073 11.6666 13.7094 11.5868 13.5496 11.427C13.3899 11.2673 13.3101 11.0694 13.3101 10.8333C13.3101 10.5972 13.3899 10.3993 13.5496 10.2395C13.7094 10.0798 13.9073 9.99996 14.1434 9.99996C14.3795 9.99996 14.5774 10.0798 14.7371 10.2395C14.8969 10.3993 14.9767 10.5972 14.9767 10.8333C14.9767 11.0694 14.8969 11.2673 14.7371 11.427C14.5774 11.5868 14.3795 11.6666 14.1434 11.6666ZM10.8101 15C10.5739 15 10.376 14.9201 10.2163 14.7604C10.0566 14.6007 9.97673 14.4027 9.97673 14.1666C9.97673 13.9305 10.0566 13.7326 10.2163 13.5729C10.376 13.4132 10.5739 13.3333 10.8101 13.3333C11.0462 13.3333 11.2441 13.4132 11.4038 13.5729C11.5635 13.7326 11.6434 13.9305 11.6434 14.1666C11.6434 14.4027 11.5635 14.6007 11.4038 14.7604C11.2441 14.9201 11.0462 15 10.8101 15ZM7.47673 15C7.24061 15 7.0427 14.9201 6.88298 14.7604C6.72325 14.6007 6.64339 14.4027 6.64339 14.1666C6.64339 13.9305 6.72325 13.7326 6.88298 13.5729C7.0427 13.4132 7.24061 13.3333 7.47673 13.3333C7.71284 13.3333 7.91075 13.4132 8.07048 13.5729C8.2302 13.7326 8.31006 13.9305 8.31006 14.1666C8.31006 14.4027 8.2302 14.6007 8.07048 14.7604C7.91075 14.9201 7.71284 15 7.47673 15ZM14.1434 15C13.9073 15 13.7094 14.9201 13.5496 14.7604C13.3899 14.6007 13.3101 14.4027 13.3101 14.1666C13.3101 13.9305 13.3899 13.7326 13.5496 13.5729C13.7094 13.4132 13.9073 13.3333 14.1434 13.3333C14.3795 13.3333 14.5774 13.4132 14.7371 13.5729C14.8969 13.7326 14.9767 13.9305 14.9767 14.1666C14.9767 14.4027 14.8969 14.6007 14.7371 14.7604C14.5774 14.9201 14.3795 15 14.1434 15Z" fill="#6B7280"/>
</g>
</svg>
