<svg width="247" height="199" viewBox="0 0 247 199" fill="none" xmlns="http://www.w3.org/2000/svg">
<path d="M100.629 92.2023H66.6754V65.3014V63.0159H73.4264L76.5497 65.3014H100.629V92.2023Z" fill="#0D72B9"/>
<path d="M99.5215 67.8286H67.8597V69.4285H99.5215V67.8286Z" fill="#F1F2F2"/>
<path d="M65.2875 69.4287H101.312C101.585 69.4287 101.846 69.5368 102.038 69.7291C102.23 69.9214 102.338 70.1823 102.338 70.4543V91.1739C102.338 91.4459 102.23 91.7067 102.038 91.8991C101.846 92.0914 101.585 92.1994 101.312 92.1994H65.2875C65.0153 92.1994 64.7544 92.0914 64.562 91.8991C64.3696 91.7067 64.2615 91.4459 64.2615 91.1739V70.4572C64.2615 70.1852 64.3696 69.9244 64.562 69.732C64.7544 69.5397 65.0153 69.4316 65.2875 69.4316V69.4287Z" fill="#0D72B9"/>
<path d="M100.156 69.4287H65.242C64.6989 69.4287 64.2585 69.8689 64.2585 70.4118V89.8875C64.2585 90.4305 64.6989 90.8706 65.242 90.8706H100.156C100.699 90.8706 101.14 90.4305 101.14 89.8875V70.4118C101.14 69.8689 100.699 69.4287 100.156 69.4287Z" fill="url(#paint0_linear_501_1486)"/>
<path d="M101.377 94.8425H71.8126V71.4183V69.4287H77.69L80.4103 71.4183H101.377V94.8425Z" fill="#F3B344"/>
<path d="M100.411 73.6189H72.843V75.0122H100.411V73.6189Z" fill="#F1F2F2"/>
<path d="M101.972 75.0122H70.6049C70.1095 75.0122 69.7079 75.4136 69.7079 75.9089V93.9458C69.7079 94.441 70.1095 94.8425 70.6049 94.8425H101.972C102.467 94.8425 102.869 94.441 102.869 93.9458V75.9089C102.869 75.4136 102.467 75.0122 101.972 75.0122Z" fill="#E5A03C"/>
<path d="M100.965 75.0122H70.5638C70.0911 75.0122 69.7079 75.3953 69.7079 75.8678V92.8265C69.7079 93.299 70.0911 93.6821 70.5638 93.6821H100.965C101.438 93.6821 101.821 93.299 101.821 92.8265V75.8678C101.821 75.3953 101.438 75.0122 100.965 75.0122Z" fill="#F3B344"/>
<path d="M138.632 75.6113H115.09C114.753 75.6113 114.48 75.8842 114.48 76.2208V88.7548C114.48 89.0914 114.753 89.3643 115.09 89.3643H138.632C138.969 89.3643 139.241 89.0914 139.241 88.7548V76.2208C139.241 75.8842 138.969 75.6113 138.632 75.6113Z" fill="#0046A4"/>
<path d="M126.861 66.8706L114.766 75.6085C114.746 75.6224 114.731 75.6423 114.724 75.6653C114.716 75.6883 114.716 75.7131 114.724 75.7361C114.731 75.7591 114.746 75.779 114.766 75.793C114.786 75.8069 114.809 75.8142 114.833 75.8136H138.888C138.912 75.8142 138.936 75.8069 138.956 75.793C138.976 75.779 138.99 75.7591 138.998 75.7361C139.006 75.7131 139.006 75.6883 138.998 75.6653C138.99 75.6423 138.975 75.6224 138.956 75.6085L126.861 66.8706Z" fill="url(#paint1_linear_501_1486)"/>
<path d="M133.895 69.4404H119.827V86.2907H133.895V69.4404Z" fill="#F7F7F7"/>
<path d="M133.895 74.2488V86.2905H119.827V83.2768L133.895 74.2488Z" fill="#E4E5EA"/>
<path d="M131.714 71.6716H121.917V72.1082H131.714V71.6716Z" fill="#DDDDDD"/>
<g opacity="0.35">
<path d="M132.197 75.1381H123.937C123.863 75.1419 123.79 75.1311 123.72 75.1063C123.651 75.0816 123.588 75.0434 123.533 74.994C123.479 74.9446 123.434 74.8849 123.403 74.8184C123.372 74.7518 123.354 74.6798 123.35 74.6063C123.354 74.5328 123.372 74.4608 123.403 74.3942C123.434 74.3277 123.479 74.268 123.533 74.2186C123.588 74.1691 123.651 74.131 123.72 74.1062C123.79 74.0815 123.863 74.0707 123.937 74.0745H132.197C132.271 74.0707 132.344 74.0815 132.414 74.1062C132.483 74.131 132.547 74.1691 132.601 74.2186C132.656 74.268 132.7 74.3277 132.731 74.3942C132.762 74.4608 132.78 74.5328 132.784 74.6063C132.78 74.6798 132.762 74.7518 132.731 74.8184C132.7 74.8849 132.656 74.9446 132.601 74.994C132.547 75.0434 132.483 75.0816 132.414 75.1063C132.344 75.1311 132.271 75.1419 132.197 75.1381Z" fill="#D1CBCB"/>
<path d="M132.247 77.8046H123.893C123.752 77.8046 123.616 77.7486 123.517 77.6489C123.417 77.5491 123.361 77.4139 123.361 77.2728C123.361 77.1318 123.417 76.9965 123.517 76.8967C123.616 76.797 123.752 76.741 123.893 76.741H132.247C132.317 76.7408 132.386 76.7544 132.451 76.781C132.516 76.8077 132.575 76.8468 132.624 76.8962C132.674 76.9456 132.713 77.0043 132.74 77.0689C132.767 77.1336 132.781 77.2028 132.781 77.2728C132.781 77.3428 132.767 77.412 132.74 77.4767C132.713 77.5413 132.674 77.6 132.624 77.6494C132.575 77.6988 132.516 77.7379 132.451 77.7646C132.386 77.7912 132.317 77.8048 132.247 77.8046Z" fill="#D1CBCB"/>
<path d="M121.212 76.5798H122.401C122.452 76.5798 122.5 76.6001 122.536 76.636C122.572 76.672 122.593 76.7209 122.593 76.7718V77.7754C122.593 77.8259 122.573 77.8743 122.537 77.91C122.501 77.9458 122.453 77.9658 122.402 77.9658H121.212C121.161 77.9658 121.113 77.9458 121.077 77.91C121.042 77.8743 121.021 77.8259 121.021 77.7754V76.7718C121.021 76.7466 121.026 76.7217 121.036 76.6984C121.045 76.6751 121.059 76.654 121.077 76.6361C121.094 76.6183 121.116 76.6041 121.139 76.5945C121.162 76.5848 121.187 76.5798 121.212 76.5798Z" fill="#DDDDDD"/>
<path d="M122.396 79.2463H121.206C121.101 79.2463 121.016 79.3316 121.016 79.4368V80.4419C121.016 80.5471 121.101 80.6323 121.206 80.6323H122.396C122.502 80.6323 122.587 80.5471 122.587 80.4419V79.4368C122.587 79.3316 122.502 79.2463 122.396 79.2463Z" fill="#DDDDDD"/>
<path d="M122.411 81.9128H121.192C121.094 81.9128 121.016 81.9915 121.016 82.0886V83.123C121.016 83.2201 121.094 83.2988 121.192 83.2988H122.411C122.508 83.2988 122.587 83.2201 122.587 83.123V82.0886C122.587 81.9915 122.508 81.9128 122.411 81.9128Z" fill="#DDDDDD"/>
<path d="M121.212 73.9133H122.4C122.451 73.9133 122.5 73.9336 122.536 73.9695C122.572 74.0055 122.592 74.0544 122.592 74.1053V75.1089C122.592 75.1598 122.572 75.2086 122.536 75.2446C122.5 75.2806 122.451 75.3008 122.4 75.3008H121.212C121.161 75.3008 121.113 75.2807 121.077 75.245C121.041 75.2093 121.021 75.1608 121.021 75.1103V74.1053C121.021 74.0801 121.026 74.0552 121.035 74.0319C121.045 74.0086 121.059 73.9875 121.077 73.9696C121.094 73.9518 121.115 73.9376 121.139 73.928C121.162 73.9183 121.187 73.9133 121.212 73.9133Z" fill="#DDDDDD"/>
<path d="M132.197 80.4741H123.937C123.863 80.4778 123.79 80.467 123.72 80.4423C123.651 80.4175 123.588 80.3794 123.533 80.3299C123.479 80.2805 123.434 80.2208 123.403 80.1543C123.372 80.0878 123.354 80.0157 123.35 79.9422C123.354 79.8688 123.372 79.7967 123.403 79.7302C123.434 79.6636 123.479 79.6039 123.533 79.5545C123.588 79.5051 123.651 79.4669 123.72 79.4422C123.79 79.4175 123.863 79.4066 123.937 79.4104H132.197C132.271 79.4066 132.344 79.4175 132.414 79.4422C132.483 79.4669 132.547 79.5051 132.601 79.5545C132.656 79.6039 132.7 79.6636 132.731 79.7302C132.762 79.7967 132.78 79.8688 132.784 79.9422C132.78 80.0157 132.762 80.0878 132.731 80.1543C132.7 80.2208 132.656 80.2805 132.601 80.3299C132.547 80.3794 132.483 80.4175 132.414 80.4423C132.344 80.467 132.271 80.4778 132.197 80.4741Z" fill="#D1CBCB"/>
<path d="M132.197 83.1391H123.937C123.863 83.1427 123.79 83.1317 123.72 83.1068C123.651 83.0819 123.587 83.0436 123.533 82.994C123.478 82.9445 123.434 82.8847 123.403 82.8181C123.372 82.7515 123.354 82.6793 123.35 82.6058C123.354 82.5323 123.372 82.4603 123.403 82.3937C123.434 82.3272 123.479 82.2675 123.533 82.2181C123.588 82.1687 123.651 82.1305 123.72 82.1058C123.79 82.081 123.863 82.0702 123.937 82.074H132.197C132.271 82.0702 132.344 82.081 132.414 82.1058C132.483 82.1305 132.547 82.1687 132.601 82.2181C132.656 82.2675 132.7 82.3272 132.731 82.3937C132.762 82.4603 132.78 82.5323 132.784 82.6058C132.78 82.6793 132.762 82.7515 132.731 82.8181C132.7 82.8847 132.656 82.9445 132.601 82.994C132.547 83.0436 132.483 83.0819 132.414 83.1068C132.344 83.1317 132.271 83.1427 132.197 83.1391Z" fill="#D1CBCB"/>
</g>
<path d="M134.163 81.9128L131.976 83.1626L130.837 82.2835L130.427 82.8007L126.927 85.309L123.547 82.8051L122.871 82.2879L121.738 83.1567L119.559 81.9114C119.422 81.9114 119.312 82.1165 119.312 82.3685V88.2729C119.312 88.5249 119.422 88.73 119.559 88.73H134.163C134.299 88.73 134.409 88.5249 134.409 88.2729V82.3685C134.409 82.118 134.299 81.9128 134.163 81.9128Z" fill="#0046A4"/>
<path d="M122.871 82.2895L114.53 75.9807C114.497 76.0565 114.48 76.1383 114.48 76.221V88.7213L122.871 82.2895Z" fill="url(#paint2_linear_501_1486)"/>
<path d="M139.241 88.7313V76.2251C139.241 76.1397 139.222 76.0554 139.187 75.9775L130.833 82.2936L139.241 88.7313Z" fill="url(#paint3_linear_501_1486)"/>
<path d="M138.632 89.3645C138.783 89.3645 138.928 89.3074 139.039 89.2048L130.427 82.8066L126.927 85.3091L123.547 82.8052L115.127 89.363L138.632 89.3645Z" fill="url(#paint4_linear_501_1486)"/>
<path d="M92.4017 66.979L89.6977 79.4911C89.5507 80.1713 89.9831 80.8418 90.6636 80.9887L110.248 85.2177C110.928 85.3647 111.599 84.9324 111.746 84.2522L114.45 71.7401C114.597 71.0599 114.164 70.3894 113.484 70.2425L93.8999 66.0135C93.2194 65.8666 92.5486 66.2988 92.4017 66.979Z" fill="#3885C6"/>
<path d="M109.934 84.2028L90.805 80.0727C90.4926 80.0049 90.2198 79.8159 90.0467 79.5473C89.8735 79.2786 89.8142 78.9522 89.8817 78.6398L92.4129 66.9189C92.4463 66.7643 92.5098 66.6178 92.5999 66.4877C92.6899 66.3577 92.8047 66.2466 92.9376 66.1609C93.0706 66.0752 93.2192 66.0165 93.3748 65.9882C93.5305 65.9599 93.6902 65.9625 93.8449 65.9959L112.975 70.126C113.287 70.1938 113.56 70.3828 113.733 70.6514C113.906 70.9201 113.966 71.2465 113.898 71.5589L111.367 83.2725C111.334 83.4278 111.271 83.5751 111.181 83.706C111.092 83.8369 110.977 83.9487 110.844 84.0352C110.71 84.1216 110.562 84.1809 110.405 84.2097C110.249 84.2384 110.089 84.2361 109.934 84.2028Z" fill="white"/>
<path d="M106.14 75.5L103.586 77.6625L100.61 71.3625L89.8229 79.0427C89.7804 79.5716 90.2626 80.1005 90.9793 80.2543L109.702 84.298C110.466 84.4621 111.181 84.1412 111.303 83.5816L111.609 82.1633L106.14 75.5Z" fill="#3885C6"/>
<path d="M109.853 72.9859C109.803 73.2335 109.681 73.4607 109.501 73.6385C109.322 73.8163 109.093 73.9368 108.845 73.9846C108.597 74.0323 108.34 74.0052 108.108 73.9067C107.875 73.8082 107.677 73.6428 107.539 73.4314C107.4 73.2201 107.328 72.9723 107.331 72.7197C107.334 72.4672 107.412 72.2212 107.555 72.013C107.698 71.8049 107.9 71.644 108.135 71.5509C108.37 71.4578 108.627 71.4366 108.874 71.49C109.037 71.5238 109.191 71.5894 109.328 71.6829C109.465 71.7764 109.583 71.8961 109.674 72.035C109.765 72.1739 109.827 72.3294 109.858 72.4926C109.889 72.6558 109.887 72.8234 109.853 72.9859Z" fill="#3885C6"/>
<path d="M61.7727 79.3591L73.2988 186.476C73.387 187.282 73.7695 188.026 74.3729 188.567C74.9764 189.108 75.7583 189.407 76.5688 189.406H150.31C151.118 189.407 151.898 189.109 152.5 188.572C153.103 188.034 153.486 187.293 153.577 186.491L165.742 79.3547L61.7727 79.3591Z" fill="#2B65EC"/>
<path d="M113.758 176.906C112.805 176.905 111.893 176.525 111.22 175.852C110.547 175.178 110.17 174.265 110.17 173.314V94.1977C110.15 93.7141 110.228 93.2316 110.4 92.779C110.572 92.3265 110.833 91.9133 111.168 91.5642C111.504 91.2152 111.906 90.9374 112.352 90.7477C112.797 90.558 113.276 90.4602 113.76 90.4602C114.245 90.4602 114.724 90.558 115.169 90.7477C115.615 90.9374 116.017 91.2152 116.353 91.5642C116.688 91.9133 116.949 92.3265 117.121 92.779C117.293 93.2316 117.371 93.7141 117.351 94.1977V173.314C117.352 173.785 117.259 174.253 117.078 174.689C116.898 175.125 116.633 175.521 116.299 175.854C115.965 176.188 115.569 176.453 115.133 176.633C114.697 176.813 114.23 176.906 113.758 176.906Z" fill="#6BA2EE"/>
<path d="M93.8624 176.585C93.394 176.643 92.9189 176.608 92.4641 176.482C92.0094 176.356 91.5839 176.142 91.212 175.852C90.8401 175.561 90.5291 175.2 90.2968 174.79C90.0645 174.379 89.9154 173.927 89.8581 173.459L80.2125 94.9362C80.104 93.9946 80.3721 93.0483 80.9585 92.3035C81.5448 91.5586 82.4019 91.0756 83.343 90.9596C84.2841 90.8437 85.2328 91.1041 85.9826 91.6843C86.7324 92.2645 87.2224 93.1174 87.346 94.0571L96.9916 172.578C97.0496 173.047 97.0147 173.522 96.8888 173.977C96.7629 174.432 96.5485 174.858 96.2579 175.23C95.9673 175.602 95.6061 175.914 95.1951 176.146C94.784 176.379 94.3312 176.528 93.8624 176.585Z" fill="#6BA2EE"/>
<path d="M132.999 176.585C133.467 176.643 133.942 176.608 134.397 176.482C134.852 176.356 135.277 176.141 135.649 175.851C136.021 175.561 136.332 175.2 136.564 174.79C136.797 174.379 136.946 173.927 137.003 173.459L146.649 94.9376C146.766 93.9919 146.502 93.0385 145.915 92.2873C145.328 91.5361 144.467 91.0486 143.521 90.932C142.575 90.8155 141.621 91.0794 140.87 91.6657C140.118 92.2521 139.631 93.1128 139.514 94.0586L129.87 172.58C129.812 173.048 129.847 173.523 129.973 173.978C130.099 174.433 130.314 174.859 130.604 175.231C130.895 175.603 131.256 175.914 131.667 176.146C132.078 176.379 132.53 176.528 132.999 176.585Z" fill="#6BA2EE"/>
<path d="M135.094 64.5161L130.134 63.1008L132.164 55.9965C132.254 55.7029 132.224 55.3856 132.081 55.114C131.937 54.8423 131.692 54.6386 131.399 54.5475L108.783 48.0952C108.486 48.0184 108.17 48.0623 107.905 48.2174C107.64 48.3725 107.447 48.6262 107.369 48.9229L105.333 56.0229L100.374 54.6076L102.41 47.5091C103.405 44.0251 106.929 41.9637 110.263 42.916L132.879 49.3713C136.215 50.3236 138.117 53.9336 137.129 57.4176L135.094 64.5161Z" fill="#6C75BA"/>
<path d="M170.702 74.6824L67.6647 45.2703C67.1336 45.1189 66.564 45.1844 66.0811 45.4526C65.5982 45.7207 65.2416 46.1694 65.0895 46.7002L62.5627 55.5671C62.4872 55.8308 62.4645 56.1068 62.4959 56.3792C62.5273 56.6517 62.6123 56.9153 62.7459 57.1549C62.8795 57.3945 63.0591 57.6053 63.2744 57.7753C63.4897 57.9454 63.7364 58.0712 64.0005 58.1457L167.038 87.5578C167.569 87.7091 168.139 87.6434 168.622 87.375C169.105 87.1065 169.462 86.6574 169.613 86.1264L172.139 77.2507C172.288 76.7198 172.221 76.1512 171.952 75.6697C171.682 75.1883 171.233 74.8332 170.702 74.6824Z" fill="#2B65EC"/>
<path d="M112 198C159.496 198 198 195.985 198 193.5C198 191.015 159.496 189 112 189C64.5035 189 26 191.015 26 193.5C26 195.985 64.5035 198 112 198Z" fill="#679EEE"/>
<defs>
<linearGradient id="paint0_linear_501_1486" x1="64.2585" y1="80.1489" x2="101.14" y2="80.1489" gradientUnits="userSpaceOnUse">
<stop stop-color="#29A9E1"/>
<stop offset="0.24" stop-color="#2A91D0"/>
<stop offset="0.76" stop-color="#2D55A5"/>
<stop offset="1" stop-color="#2F368F"/>
</linearGradient>
<linearGradient id="paint1_linear_501_1486" x1="114.719" y1="71.3421" x2="139.003" y2="71.3421" gradientUnits="userSpaceOnUse">
<stop stop-color="#29A9E1"/>
<stop offset="0.24" stop-color="#2A91D0"/>
<stop offset="0.76" stop-color="#2D55A5"/>
<stop offset="1" stop-color="#2F368F"/>
</linearGradient>
<linearGradient id="paint2_linear_501_1486" x1="114.48" y1="82.351" x2="122.871" y2="82.351" gradientUnits="userSpaceOnUse">
<stop stop-color="#29A9E1"/>
<stop offset="0.24" stop-color="#2A91D0"/>
<stop offset="0.76" stop-color="#2D55A5"/>
<stop offset="1" stop-color="#2F368F"/>
</linearGradient>
<linearGradient id="paint3_linear_501_1486" x1="130.837" y1="82.3522" x2="139.241" y2="82.3522" gradientUnits="userSpaceOnUse">
<stop stop-color="#29A9E1"/>
<stop offset="0.24" stop-color="#2A91D0"/>
<stop offset="0.76" stop-color="#2D55A5"/>
<stop offset="1" stop-color="#2F368F"/>
</linearGradient>
<linearGradient id="paint4_linear_501_1486" x1="115.127" y1="86.0856" x2="139.039" y2="86.0856" gradientUnits="userSpaceOnUse">
<stop stop-color="#29A9E1"/>
<stop offset="0.24" stop-color="#2A91D0"/>
<stop offset="0.76" stop-color="#2D55A5"/>
<stop offset="1" stop-color="#2F368F"/>
</linearGradient>
</defs>
</svg>
