<svg width="21" height="20" viewBox="0 0 21 20" fill="none" xmlns="http://www.w3.org/2000/svg">
<mask id="mask0_172_1888" style="mask-type:alpha" maskUnits="userSpaceOnUse" x="0" y="0" width="21" height="20">
<rect x="0.810059" width="20" height="20" fill="#D9D9D9"/>
</mask>
<g mask="url(#mask0_172_1888)">
<path d="M4.14339 18.3333C3.90728 18.3333 3.70936 18.2534 3.54964 18.0937C3.38992 17.934 3.31006 17.7361 3.31006 17.5V13.3333C3.31006 12.875 3.47325 12.4826 3.79964 12.1562C4.12603 11.8298 4.51839 11.6666 4.97673 11.6666V8.33329C4.97673 7.87496 5.13992 7.4826 5.46631 7.15621C5.7927 6.82982 6.18506 6.66663 6.64339 6.66663H9.97673V5.45829C9.72673 5.29163 9.52534 5.09024 9.37256 4.85413C9.21978 4.61801 9.14339 4.33329 9.14339 3.99996C9.14339 3.79163 9.18506 3.58676 9.26839 3.38538C9.35173 3.18399 9.47673 2.99996 9.64339 2.83329L10.8101 1.66663L11.9767 2.83329C12.1434 2.99996 12.2684 3.18399 12.3517 3.38538C12.4351 3.58676 12.4767 3.79163 12.4767 3.99996C12.4767 4.33329 12.4003 4.61801 12.2476 4.85413C12.0948 5.09024 11.8934 5.29163 11.6434 5.45829V6.66663H14.9767C15.4351 6.66663 15.8274 6.82982 16.1538 7.15621C16.4802 7.4826 16.6434 7.87496 16.6434 8.33329V11.6666C17.1017 11.6666 17.4941 11.8298 17.8205 12.1562C18.1469 12.4826 18.3101 12.875 18.3101 13.3333V17.5C18.3101 17.7361 18.2302 17.934 18.0705 18.0937C17.9108 18.2534 17.7128 18.3333 17.4767 18.3333H4.14339ZM6.64339 11.6666H14.9767V8.33329H6.64339V11.6666ZM4.97673 16.6666H16.6434V13.3333H4.97673V16.6666Z" fill="#6B7280"/>
</g>
</svg>
