<svg width="20" height="15" viewBox="0 0 20 15" fill="none" xmlns="http://www.w3.org/2000/svg">
<path d="M0 2.5C0 1.13281 1.09375 0 2.5 0H17.5C18.8672 0 20 1.13281 20 2.5V12.5C20 13.9062 18.8672 15 17.5 15H2.5C1.09375 15 0 13.9062 0 12.5V2.5ZM1.875 2.5V3.39844L8.59375 8.90625C9.41406 9.57031 10.5469 9.57031 11.3672 8.90625L18.125 3.39844V2.5C18.125 2.1875 17.8125 1.875 17.5 1.875H2.5C2.14844 1.875 1.875 2.1875 1.875 2.5ZM1.875 5.82031V12.5C1.875 12.8516 2.14844 13.125 2.5 13.125H17.5C17.8125 13.125 18.125 12.8516 18.125 12.5V5.82031L12.5781 10.3516C11.0547 11.6016 8.90625 11.6016 7.38281 10.3516L1.875 5.82031Z" fill="#6B7280"/>
</svg>
