<svg width="21" height="20" viewBox="0 0 21 20" fill="none" xmlns="http://www.w3.org/2000/svg">
<mask id="mask0_172_1914" style="mask-type:alpha" maskUnits="userSpaceOnUse" x="0" y="0" width="21" height="20">
<rect x="0.810059" width="20" height="20" fill="#D9D9D9"/>
</mask>
<g mask="url(#mask0_172_1914)">
<path d="M9.37256 10C8.98367 10 8.66423 9.85417 8.41423 9.5625C8.16423 9.27083 8.07395 8.93056 8.14339 8.54167L8.39339 7.04167C8.5045 6.44444 8.78575 5.95486 9.23714 5.57292C9.68853 5.19097 10.2128 5 10.8101 5C11.4212 5 11.9524 5.19097 12.4038 5.57292C12.8552 5.95486 13.1364 6.44444 13.2476 7.04167L13.4976 8.54167C13.567 8.93056 13.4767 9.27083 13.2267 9.5625C12.9767 9.85417 12.6573 10 12.2684 10H9.37256ZM9.87256 8.33333H11.7684L11.6017 7.3125C11.5739 7.11806 11.4837 6.96181 11.3309 6.84375C11.1781 6.72569 11.0045 6.66667 10.8101 6.66667C10.6156 6.66667 10.4455 6.72569 10.2996 6.84375C10.1538 6.96181 10.067 7.11806 10.0392 7.3125L9.87256 8.33333ZM3.39339 10.8125C3.07395 10.8264 2.79964 10.7639 2.57048 10.625C2.34131 10.4861 2.192 10.2708 2.12256 9.97917C2.09478 9.85417 2.08784 9.72917 2.10173 9.60417C2.11561 9.47917 2.15034 9.36111 2.20589 9.25C2.20589 9.26389 2.19895 9.23611 2.18506 9.16667C2.15728 9.13889 2.08784 8.97222 1.97673 8.66667C1.94895 8.5 1.96978 8.34028 2.03923 8.1875C2.10867 8.03472 2.19895 7.90278 2.31006 7.79167L2.35173 7.75C2.3795 7.48611 2.48714 7.26389 2.67464 7.08333C2.86214 6.90278 3.09478 6.8125 3.37256 6.8125C3.41423 6.8125 3.54617 6.84028 3.76839 6.89583L3.83089 6.875C3.90034 6.80556 3.99061 6.75347 4.10173 6.71875C4.21284 6.68403 4.33089 6.66667 4.45589 6.66667C4.60867 6.66667 4.74409 6.69097 4.86214 6.73958C4.9802 6.78819 5.07395 6.86111 5.14339 6.95833C5.15728 6.95833 5.1677 6.96181 5.17464 6.96875C5.18159 6.97569 5.192 6.97917 5.20589 6.97917C5.40034 6.99306 5.57048 7.05208 5.71631 7.15625C5.86214 7.26042 5.96978 7.40278 6.03923 7.58333C6.067 7.68056 6.07742 7.77431 6.07048 7.86458C6.06353 7.95486 6.04617 8.04167 6.01839 8.125C6.01839 8.13889 6.02534 8.16667 6.03923 8.20833C6.13645 8.30556 6.21284 8.41319 6.26839 8.53125C6.32395 8.64931 6.35173 8.77083 6.35173 8.89583C6.35173 8.95139 6.31006 9.09722 6.22673 9.33333C6.21284 9.36111 6.21284 9.38889 6.22673 9.41667L6.26839 9.75C6.26839 10.0417 6.14686 10.2917 5.90381 10.5C5.66075 10.7083 5.36561 10.8125 5.01839 10.8125H3.39339ZM17.4767 10.8333C17.0184 10.8333 16.626 10.6701 16.2996 10.3437C15.9733 10.0174 15.8101 9.625 15.8101 9.16667C15.8101 9 15.8344 8.84375 15.883 8.69792C15.9316 8.55208 15.9976 8.40972 16.0809 8.27083L15.4976 7.75C15.3587 7.63889 15.3344 7.5 15.4246 7.33333C15.5149 7.16667 15.6434 7.08333 15.8101 7.08333H17.4767C17.9351 7.08333 18.3274 7.24653 18.6538 7.57292C18.9802 7.89931 19.1434 8.29167 19.1434 8.75V9.16667C19.1434 9.625 18.9802 10.0174 18.6538 10.3437C18.3274 10.6701 17.9351 10.8333 17.4767 10.8333ZM0.810059 15V13.6875C0.810059 13.0764 1.11909 12.5868 1.73714 12.2188C2.3552 11.8507 3.15728 11.6667 4.14339 11.6667C4.32395 11.6667 4.49756 11.6701 4.66423 11.6771C4.83089 11.684 4.99061 11.7014 5.14339 11.7292C4.94895 12.0069 4.80311 12.3056 4.70589 12.625C4.60867 12.9444 4.56006 13.2847 4.56006 13.6458V15H0.810059ZM5.81006 15V13.6458C5.81006 12.7431 6.27186 12.0139 7.19548 11.4583C8.11909 10.9028 9.32395 10.625 10.8101 10.625C12.3101 10.625 13.5184 10.9028 14.4351 11.4583C15.3517 12.0139 15.8101 12.7431 15.8101 13.6458V15H5.81006ZM17.4767 11.6667C18.4767 11.6667 19.2823 11.8507 19.8934 12.2188C20.5045 12.5868 20.8101 13.0764 20.8101 13.6875V15H17.0601V13.6458C17.0601 13.2847 17.0149 12.9444 16.9246 12.625C16.8344 12.3056 16.6989 12.0069 16.5184 11.7292C16.6712 11.7014 16.8274 11.684 16.9871 11.6771C17.1469 11.6701 17.3101 11.6667 17.4767 11.6667ZM10.8101 12.2917C10.0184 12.2917 9.31006 12.3958 8.68506 12.6042C8.06006 12.8125 7.692 13.0556 7.58089 13.3333H14.0601C13.9351 13.0556 13.5635 12.8125 12.9455 12.6042C12.3274 12.3958 11.6156 12.2917 10.8101 12.2917Z" fill="#6B7280"/>
</g>
</svg>
