<svg width="272" height="272" viewBox="0 0 272 272" fill="none" xmlns="http://www.w3.org/2000/svg">
<g clip-path="url(#clip0_20_1297)">
<path d="M144.616 99.2921H101.298V86.6243C101.298 83.8715 103.531 81.64 106.286 81.64H139.628C142.383 81.64 144.616 83.8715 144.616 86.6243V99.2921Z" fill="#FFB400"/>
<path d="M191.386 99.2921H148.067V86.6243C148.067 83.8715 150.301 81.64 153.056 81.64H186.397C189.152 81.64 191.386 83.8715 191.386 86.6243V99.2921Z" fill="#FFB400"/>
<path d="M135.637 203.456C109.621 203.456 83.2383 202.418 57.2222 200.371C52.8845 200.011 48.5019 197.994 44.8735 194.691C41.2185 191.363 38.8119 187.16 38.0971 182.855L38.0953 182.845C35.5583 167.033 34.272 150.997 34.272 135.184C34.272 119.371 35.5583 103.335 38.0952 87.5232L38.097 87.5124C38.8118 83.2081 41.2185 79.005 44.8734 75.6773C48.5018 72.3738 52.8844 70.3568 57.2138 69.9979C83.2383 67.95 109.621 66.912 135.637 66.912C161.654 66.912 188.036 67.95 214.053 69.9972C218.39 70.3568 222.773 72.3738 226.401 75.6775C230.056 79.0051 232.463 83.2082 233.178 87.5124L233.179 87.5233C235.716 103.335 237.003 119.371 237.003 135.184C237.003 150.997 235.716 167.033 233.179 182.845L233.178 182.856C232.463 187.16 230.056 191.363 226.401 194.691C222.773 197.994 218.39 200.011 214.061 200.37L214.052 200.371C188.036 202.418 161.654 203.456 135.637 203.456ZM42.0428 182.207C43.2231 189.296 50.3206 195.79 57.5444 196.389C83.4492 198.427 109.545 199.446 135.635 199.446C161.729 199.446 187.822 198.427 213.734 196.388C220.956 195.787 228.051 189.295 229.232 182.208C234.237 151.006 234.238 119.365 229.232 88.1629C228.052 81.0733 220.954 74.5783 213.73 73.9795C187.825 71.9411 161.73 70.9216 135.64 70.9216C109.543 70.9216 83.4514 71.9409 57.5361 73.9801C50.3207 74.5784 43.2231 81.0723 42.0428 88.1613C37.0372 119.363 37.0372 151.005 42.0428 182.207Z" fill="#FFB400"/>
<path d="M224.976 108.989C224.038 103.235 219.219 98.9119 213.394 98.5666C176.32 96.3687 139.245 95.7452 102.171 96.6913C99.6304 96.7561 97.5363 94.7169 97.5363 92.1781V86.3124C97.5363 83.6592 95.3836 81.5084 92.728 81.5084H66.3996C58.6164 81.5084 51.7711 86.6363 49.5736 94.0962C49.0585 95.8447 48.5746 97.5857 48.1797 99.1774C42.1965 126.309 42.6954 153.551 49.0902 180.9C50.1732 185.452 54.8068 189.312 59.3265 189.585C110.2 192.545 161.074 192.545 211.948 189.585C216.468 189.312 221.101 185.452 222.184 180.9C227.809 156.846 228.872 132.875 224.976 108.989Z" fill="#00AEE0"/>
<path d="M210.561 79.1256C209.332 78.8518 206.849 82.5812 206.934 83.0872C207.019 83.5933 209.805 85.2816 209.637 85.9563C209.468 86.6309 207.021 88.3161 207.064 88.8644C207.106 89.4126 209.936 92.4082 210.738 92.5352C211.54 92.6621 213.058 89.7113 213.48 89.7959C213.902 89.8805 215.887 92.8756 216.647 92.6231C217.407 92.3704 220.528 89.5892 220.359 88.9144C220.19 88.2396 217.15 86.2981 217.36 85.9186C217.571 85.5392 220.313 83.3059 220.271 82.842C220.228 82.3781 217.314 79.3825 216.723 79.2978C216.132 79.213 214.066 82.1214 213.517 81.9946C212.969 81.8679 211.321 79.2947 210.561 79.1256Z" fill="#10294C"/>
<mask id="mask0_20_1297" style="mask-type:alpha" maskUnits="userSpaceOnUse" x="109" y="115" width="54" height="55">
<rect x="109.228" y="115.654" width="53.5433" height="53.5433" fill="#D9D9D9"/>
</mask>
<g mask="url(#mask0_20_1297)">
<path d="M120.383 162.504C119.156 162.504 118.106 162.067 117.232 161.193C116.358 160.319 115.921 159.269 115.921 158.042V126.808C115.921 125.581 116.358 124.531 117.232 123.657C118.106 122.783 119.156 122.346 120.383 122.346H151.617C152.844 122.346 153.894 122.783 154.768 123.657C155.642 124.531 156.079 125.581 156.079 126.808V158.042C156.079 159.269 155.642 160.319 154.768 161.193C153.894 162.067 152.844 162.504 151.617 162.504H120.383ZM122.614 153.58H149.386L141.02 142.425L134.327 151.349L129.307 144.656L122.614 153.58Z" fill="white"/>
</g>
</g>
<g clip-path="url(#clip1_20_1297)">
<path d="M206.007 82.2936C203.368 82.2936 201.228 80.1558 201.228 77.5188V58.3166C201.228 51.424 195.615 45.8163 188.716 45.8163C181.817 45.8163 176.204 51.424 176.204 58.3166C176.204 60.9536 174.064 63.0914 171.425 63.0914C168.785 63.0914 166.645 60.9536 166.645 58.3166C166.645 55.342 167.229 52.4539 168.382 49.7323C169.493 47.1061 171.084 44.7485 173.11 42.725C175.135 40.7015 177.495 39.1123 180.123 38.0015C182.848 36.8503 185.738 36.2667 188.716 36.2667C191.693 36.2667 194.584 36.8503 197.308 38.0015C199.937 39.1123 202.297 40.7015 204.322 42.725C206.347 44.7484 207.938 47.1061 209.05 49.7323C210.202 52.4539 210.786 55.342 210.786 58.3166V77.5188C210.786 80.1558 208.647 82.2936 206.007 82.2936Z" fill="#F04E23"/>
<path d="M223.298 110.25C216.679 110.309 210.27 106.632 205.142 101.679C200.084 96.6622 196.307 90.3689 196.549 83.7368C196.658 79.251 197.073 74.7652 197.794 70.2794C198.36 66.9665 201.709 63.7421 205.02 63.263C217.206 61.6155 229.391 61.6155 241.577 63.263C244.888 63.7421 248.236 66.9665 248.802 70.2794C249.523 74.7652 249.938 79.251 250.048 83.7368C250.29 90.3689 246.513 96.6622 241.454 101.679C236.327 106.632 229.918 110.309 223.298 110.25Z" fill="#F04E23"/>
<path d="M227.904 77.8976C226.437 75.8536 223.322 75.2239 221.175 76.5373C219.028 77.8507 218.173 80.9094 219.329 83.1439C219.723 83.9054 220.316 84.5807 220.514 85.4148C221.091 87.8552 218.069 90.2188 218.941 92.5703C219.274 93.4681 220.132 94.09 221.045 94.3801C221.959 94.6702 222.934 94.6776 223.893 94.6824C225.46 94.6904 227.32 94.5429 228.119 93.1953C228.677 92.2552 228.483 91.0468 228.071 90.0345C227.188 87.8631 226.03 86.3242 227.473 84.1997C228.779 82.2762 229.406 79.9908 227.904 77.8976Z" fill="#04294F"/>
<path d="M226.065 94.0679C226.622 93.1279 226.428 91.9195 226.016 90.9071C225.134 88.7358 223.976 87.1968 225.418 85.0724C226.725 83.1488 227.351 80.8634 225.849 78.7702C224.735 77.218 222.671 76.4825 220.802 76.7931C220.921 76.702 221.045 76.6163 221.175 76.5373C223.321 75.2239 226.437 75.8536 227.904 77.8976C229.406 79.9908 228.779 82.2762 227.473 84.1998C226.03 86.3242 227.188 87.8632 228.071 90.0345C228.483 91.0469 228.677 92.2553 228.119 93.1953C227.611 94.0521 226.674 94.4235 225.656 94.5785C225.811 94.4309 225.949 94.2623 226.065 94.0679Z" fill="#FFB400"/>
<path d="M188.716 38.8458C188.71 38.928 188.614 39.0047 188.44 39.0757C188.354 39.1112 188.248 39.1453 188.124 39.1778C188.062 39.1943 187.995 39.2093 187.924 39.226C187.854 39.2456 187.779 39.2652 187.699 39.2845C187.541 39.3236 187.366 39.3603 187.176 39.3993C186.987 39.4477 186.782 39.496 186.563 39.5441C186.454 39.5651 186.342 39.6006 186.227 39.63C186.111 39.6598 185.993 39.6905 185.87 39.7221C185.748 39.7496 185.624 39.7917 185.497 39.8291C185.369 39.8664 185.239 39.9047 185.106 39.944C185.039 39.9615 184.972 39.9871 184.905 40.0096C184.837 40.0326 184.769 40.0558 184.7 40.0792C184.631 40.1022 184.562 40.1255 184.492 40.1491C184.422 40.1731 184.35 40.1936 184.28 40.2228C184.138 40.2767 183.994 40.3318 183.847 40.3879C183.774 40.4162 183.7 40.4417 183.626 40.4725C183.552 40.5041 183.478 40.536 183.403 40.5681C183.254 40.6316 183.102 40.6962 182.948 40.7619C182.796 40.8336 182.641 40.9066 182.485 40.9805C182.407 41.0181 182.327 41.0516 182.249 41.0928C182.171 41.1334 182.093 41.1743 182.014 41.2154C181.935 41.2562 181.855 41.2973 181.775 41.3386C181.695 41.3799 181.614 41.4196 181.535 41.4666C181.376 41.5564 181.214 41.6474 181.051 41.7394C180.969 41.7834 180.889 41.8338 180.809 41.8837C180.728 41.9333 180.647 41.9831 180.565 42.0332C180.483 42.0829 180.401 42.1329 180.318 42.1832C180.237 42.235 180.156 42.2905 180.074 42.3441C179.912 42.4535 179.744 42.5579 179.581 42.6724C178.923 43.1251 178.265 43.6347 177.615 44.175C176.318 45.2779 175.18 46.4473 174.25 47.5844C174.016 47.8683 173.798 48.1522 173.588 48.4302C173.383 48.7105 173.184 48.9843 173.003 49.2558C172.819 49.5256 172.652 49.7925 172.491 50.0501C172.414 50.1804 172.336 50.3071 172.263 50.4331C172.192 50.5597 172.117 50.6819 172.052 50.8046C171.513 51.7787 171.151 52.6158 170.889 53.2064C170.625 53.7965 170.44 54.1392 170.272 54.1208C170.113 54.1037 169.984 53.7199 169.978 53.0215C169.97 52.3253 170.108 51.3162 170.503 50.1335C170.55 49.9846 170.608 49.8368 170.663 49.683C170.719 49.5302 170.783 49.3769 170.847 49.2189C170.98 48.9071 171.125 48.5844 171.293 48.2595C171.456 47.9323 171.642 47.6036 171.84 47.2687C172.041 46.9365 172.256 46.5989 172.491 46.2635C173.427 44.9181 174.635 43.5756 176.07 42.3557C176.798 41.7501 177.537 41.2004 178.291 40.722C178.478 40.6013 178.671 40.4912 178.859 40.378C178.953 40.3223 179.046 40.2654 179.141 40.212C179.237 40.1605 179.332 40.1093 179.427 40.0583C179.522 40.0077 179.616 39.9573 179.71 39.9073C179.804 39.8572 179.897 39.807 179.994 39.7631C180.184 39.6731 180.373 39.5841 180.559 39.4961C180.651 39.4509 180.747 39.4129 180.841 39.3738C180.935 39.335 181.029 39.2964 181.121 39.2581C181.214 39.2202 181.307 39.1825 181.398 39.1451C181.49 39.1075 181.584 39.0777 181.676 39.0442C181.861 38.98 182.043 38.9167 182.222 38.8544C182.403 38.7983 182.584 38.7479 182.76 38.6969C182.848 38.6719 182.935 38.6471 183.022 38.6225C183.109 38.5991 183.197 38.5811 183.283 38.5608C183.456 38.5222 183.626 38.4843 183.792 38.4472C183.875 38.4272 183.959 38.4161 184.041 38.4018C184.124 38.3885 184.205 38.3753 184.286 38.3622C184.367 38.3495 184.446 38.337 184.525 38.3246C184.604 38.3131 184.681 38.2987 184.759 38.2927C184.915 38.278 185.066 38.2637 185.214 38.2498C185.362 38.2375 185.504 38.2216 185.645 38.2211C185.785 38.2183 185.922 38.2155 186.054 38.2129C186.186 38.2124 186.312 38.2066 186.436 38.2162C186.683 38.2291 186.912 38.2449 187.121 38.2633C187.331 38.2911 187.522 38.3236 187.692 38.3558C187.777 38.3721 187.857 38.3888 187.932 38.4057C188.007 38.4255 188.076 38.4476 188.141 38.4685C188.27 38.5108 188.377 38.5532 188.464 38.5954C188.636 38.6799 188.721 38.7637 188.716 38.8458Z" fill="#FFB400"/>
<path d="M205.28 96.5071C205.227 96.5702 205.112 96.5752 204.933 96.5193C204.843 96.4914 204.745 96.4428 204.629 96.381C204.57 96.3504 204.514 96.3119 204.451 96.2715C204.39 96.23 204.322 96.1867 204.258 96.1353C203.724 95.736 203.075 95.0305 202.441 94.0752C202.123 93.5979 201.804 93.0606 201.495 92.4699C201.184 91.8752 200.883 91.233 200.598 90.5408C200.028 89.1587 199.518 87.5803 199.178 85.8764C199 85.025 198.886 84.1725 198.817 83.3506C198.779 82.9394 198.766 82.5335 198.751 82.137C198.748 81.7398 198.743 81.3515 198.761 80.9732C198.769 80.5948 198.801 80.2273 198.827 79.8708C198.843 79.6928 198.864 79.518 198.883 79.3459C198.893 79.2599 198.903 79.1746 198.913 79.0901C198.923 79.0056 198.937 78.9223 198.948 78.8395C198.974 78.6743 198.999 78.512 199.023 78.3526C199.048 78.1935 199.08 78.0387 199.109 77.8866C199.139 77.7348 199.166 77.5859 199.198 77.4413C199.232 77.2972 199.265 77.1562 199.298 77.0185C199.565 75.9198 199.878 75.0624 200.152 74.4892C200.43 73.9171 200.665 73.6267 200.824 73.6666C200.985 73.707 201.055 74.0729 201.058 74.693C201.067 75.3139 201.014 76.1906 200.969 77.2576C200.964 77.3907 200.958 77.5271 200.952 77.6664C200.946 77.8056 200.945 77.9478 200.94 78.0925C200.937 78.2373 200.929 78.3845 200.928 78.5347C200.926 78.6845 200.924 78.8371 200.923 78.9924C200.922 79.0699 200.919 79.1481 200.92 79.2268C200.921 79.3055 200.921 79.3848 200.922 79.4648C200.923 79.6243 200.924 79.7864 200.925 79.951C200.937 80.2795 200.939 80.617 200.961 80.9617C200.973 81.3068 201.005 81.659 201.029 82.0185C201.065 82.3773 201.095 82.7436 201.145 83.1147C201.238 83.8579 201.355 84.6212 201.519 85.4039C201.832 86.9748 202.241 88.4519 202.665 89.7857C202.876 90.4523 203.093 91.0843 203.304 91.6657C203.517 92.2509 203.728 92.7896 203.928 93.2758C204.328 94.2496 204.698 95.0041 204.964 95.5315C205.227 96.0592 205.388 96.3748 205.28 96.5071Z" fill="#FFB400"/>
<path d="M245.65 73.7651C245.547 73.7693 245.445 73.7383 245.343 73.6806C245.293 73.6517 245.242 73.6162 245.193 73.5748C245.144 73.5334 245.093 73.4863 245.041 73.4342C244.842 73.2248 244.628 72.9383 244.393 72.6037C244.163 72.2787 243.89 71.8918 243.586 71.4622C243.431 71.252 243.269 71.0313 243.1 70.8026C242.927 70.5755 242.748 70.3404 242.565 70.0996C242.375 69.8625 242.19 69.6311 242.011 69.4076C241.829 69.1865 241.653 68.9733 241.486 68.7702C241.145 68.3668 240.838 68.0035 240.58 67.6985C240.319 67.387 240.1 67.1157 239.947 66.8745C239.873 66.7487 239.814 66.6389 239.781 66.5263C239.748 66.4151 239.74 66.3078 239.766 66.2082C239.792 66.1087 239.852 66.0216 239.948 65.9489C240.043 65.8773 240.177 65.8141 240.34 65.782C240.67 65.7077 241.133 65.7313 241.658 65.885C242.181 66.0388 242.759 66.3226 243.322 66.7246C243.602 66.927 243.881 67.1571 244.148 67.4137C244.415 67.6723 244.67 67.9517 244.918 68.2645C245.161 68.5802 245.372 68.8963 245.558 69.2193C245.743 69.5431 245.898 69.8721 246.026 70.1948C246.277 70.8456 246.408 71.4772 246.421 72.02C246.435 72.5634 246.346 73.008 246.196 73.3063C246.161 73.3807 246.121 73.4462 246.078 73.503C246.035 73.5596 245.99 73.607 245.944 73.6451C245.852 73.7214 245.753 73.7609 245.65 73.7651Z" fill="#FFB400"/>
<path d="M209.428 63.5826C209.423 63.9147 208.999 64.1985 208.365 64.4567C208.046 64.5853 207.673 64.7112 207.258 64.8316C206.844 64.9528 206.385 65.0718 205.9 65.1802C205.415 65.2905 204.944 65.3809 204.513 65.4466C204.081 65.5127 203.688 65.5553 203.347 65.5695C203.006 65.5835 202.718 65.5707 202.493 65.5207C202.267 65.4698 202.102 65.3827 202.023 65.2367C201.946 65.0931 201.967 64.9005 202.091 64.6833C202.214 64.4656 202.439 64.2252 202.745 63.9935C203.05 63.7615 203.437 63.5367 203.882 63.3406C204.328 63.1444 204.829 62.9769 205.374 62.8528C205.919 62.7311 206.45 62.6667 206.942 62.6561C207.433 62.6465 207.88 62.6891 208.252 62.7733C208.624 62.8571 208.921 62.9776 209.122 63.1188C209.323 63.2597 209.429 63.4183 209.428 63.5826Z" fill="#FFB400"/>
</g>
<g clip-path="url(#clip2_20_1297)">
<path d="M54.8031 159.58L50.6579 157.817C49.834 157.467 49.272 156.692 49.1799 155.799C49.0869 154.898 48.9294 153.993 48.7034 153.088C48.4774 152.184 48.1906 151.311 47.8488 150.472C47.5101 149.641 47.6413 148.692 48.2029 147.993L51.0291 144.476C51.6675 143.682 51.6157 142.534 50.9082 141.801L46.69 137.429C46.4492 137.18 46.1578 137.007 45.8466 136.909C45.8291 136.902 45.8106 136.895 45.7906 136.89C45.7855 136.889 45.78 136.888 45.7749 136.886C45.7513 136.88 45.7274 136.875 45.7037 136.869C45.0427 136.709 43.6843 136.453 43.0973 136.444L43.1812 137.864L40.435 139.944C39.7202 140.486 38.7693 140.587 37.9523 140.219C36.292 139.471 34.5209 138.958 32.6897 138.709C31.8041 138.588 31.052 137.999 30.7301 137.162L29.1095 132.95C28.8909 132.382 28.4408 131.965 27.9037 131.773C27.4257 131.527 25.9356 131.33 25.2696 131.285L24.1969 132.221C24.1969 132.221 24.1769 132.28 24.1469 132.37L20.8587 133.198C19.8722 133.446 19.225 134.394 19.3496 135.406L19.9011 139.887C20.0107 140.777 19.625 141.654 18.9008 142.179C17.4032 143.266 16.0831 144.557 14.9708 146.003C14.4234 146.714 13.5377 147.075 12.6528 146.936L8.2033 146.238C7.19855 146.081 6.23428 146.7 5.95528 147.681L4.29184 153.533C4.01284 154.515 4.50667 155.551 5.4431 155.949L9.58833 157.711C10.4122 158.062 10.9742 158.836 11.0663 159.73C11.1593 160.631 11.3168 161.536 11.5428 162.441C11.7688 163.345 12.0556 164.218 12.3974 165.056C12.7362 165.888 12.6049 166.837 12.0433 167.536L9.21714 171.053C8.57874 171.847 8.63054 172.995 9.33804 173.728L12.6137 177.123V178.336C13.1722 178.422 14.1728 178.667 14.8417 178.708C14.8477 178.709 14.8537 178.709 14.8598 178.709C14.8763 178.71 14.8937 178.712 14.9099 178.712C14.9214 178.713 14.9324 178.712 14.9436 178.712C15.388 178.725 15.8381 178.594 16.2166 178.307L19.8113 175.584C20.5261 175.043 21.477 174.942 22.294 175.31C23.9543 176.057 25.7254 176.571 27.5567 176.82C28.4423 176.94 29.1944 177.53 29.5163 178.367L30.9364 182.057C30.8262 182.057 30.7528 182.057 30.7447 182.057C30.7077 182.057 29.5351 183.055 30.0388 183.352C30.5426 183.649 32.4094 183.852 32.9273 183.872C32.9273 183.872 32.9276 183.871 32.9281 183.87C33.1184 183.878 33.3126 183.86 33.5058 183.811L39.3874 182.331C40.3739 182.083 41.0211 181.135 40.8965 180.122L40.345 175.641C40.2355 174.751 40.6211 173.875 41.3454 173.35C42.8429 172.263 44.163 170.971 45.2753 169.526C45.8227 168.815 46.7084 168.454 47.5934 168.592L52.0428 169.29C53.0476 169.448 54.0118 168.829 54.2908 167.848L55.9543 161.996C56.2333 161.014 55.7395 159.978 54.8031 159.58ZM27.9034 161.774C25.4924 161.774 23.5379 159.813 23.5379 157.393C23.5379 154.973 25.4924 153.012 27.9034 153.012C30.3145 153.012 32.269 154.973 32.269 157.393C32.269 159.813 30.3145 161.774 27.9034 161.774Z" fill="#FFB400"/>
<path d="M52.5834 159.208L48.4382 157.446C47.6143 157.096 47.0523 156.321 46.9602 155.428C46.8672 154.527 46.7097 153.621 46.4837 152.717C46.2577 151.812 45.9709 150.94 45.6291 150.101C45.2903 149.27 45.4216 148.321 45.9832 147.622L48.8094 144.105C49.4478 143.31 49.396 142.163 48.6885 141.43L44.4703 137.058C43.7628 136.325 42.6218 136.236 41.81 136.85L38.2153 139.573C37.5005 140.114 36.5496 140.215 35.7326 139.848C34.0723 139.1 32.3012 138.587 30.47 138.338C29.5844 138.217 28.8323 137.627 28.5104 136.791L26.8898 132.579C26.5232 131.627 25.5071 131.098 24.5207 131.346L18.6391 132.827C17.6526 133.075 17.0054 134.022 17.13 135.035L17.6815 139.516C17.791 140.406 17.4054 141.282 16.6811 141.808C15.1836 142.895 13.8635 144.186 12.7512 145.631C12.2038 146.343 11.3181 146.704 10.4331 146.565L5.9837 145.867C4.97894 145.71 4.01468 146.328 3.73568 147.31L2.07223 153.162C1.79324 154.143 2.28706 155.18 3.22349 155.578L7.36873 157.34C8.19257 157.69 8.75463 158.465 8.84672 159.358C8.93969 160.259 9.09721 161.165 9.32315 162.069C9.54919 162.974 9.83602 163.847 10.1778 164.685C10.5165 165.516 10.3853 166.466 9.82365 167.164L6.99754 170.681C6.35914 171.476 6.41094 172.623 7.11843 173.356L11.3366 177.728C12.0441 178.462 13.1851 178.55 13.9969 177.936L17.5916 175.213C18.3064 174.672 19.2573 174.571 20.0743 174.939C21.7346 175.686 23.5057 176.2 25.337 176.449C26.2226 176.569 26.9746 177.159 27.2966 177.995L28.9172 182.207C29.2835 183.159 30.2996 183.688 31.2861 183.44L37.1677 181.959C38.1542 181.711 38.8014 180.764 38.6768 179.751L38.1253 175.27C38.0158 174.38 38.4014 173.504 39.1256 172.978C40.6232 171.891 41.9433 170.6 43.0556 169.155C43.603 168.443 44.4887 168.082 45.3736 168.221L49.8231 168.919C50.8279 169.077 51.7921 168.458 52.0711 167.476L53.7346 161.624C54.0137 160.643 53.5198 159.607 52.5834 159.208ZM27.9034 161.774C25.4924 161.774 23.5379 159.813 23.5379 157.393C23.5379 154.973 25.4924 153.012 27.9034 153.012C30.3145 153.012 32.269 154.973 32.269 157.393C32.269 159.813 30.3145 161.774 27.9034 161.774Z" fill="#00AEE0"/>
<path d="M28.0619 173.895C27.7418 173.895 27.4201 173.886 27.0964 173.867C17.9841 173.338 10.9993 165.468 11.5258 156.323C12.0524 147.178 19.8948 140.168 29.0066 140.697C33.4208 140.953 37.4713 142.919 40.4122 146.232C43.3531 149.546 44.8323 153.81 44.5772 158.24C44.0692 167.06 36.7561 173.895 28.0619 173.895ZM28.0415 141.445C19.7527 141.445 12.7819 147.959 12.2976 156.368C11.7957 165.086 18.4543 172.588 27.1411 173.092C27.4492 173.11 27.7568 173.119 28.0615 173.119C36.3503 173.119 43.321 166.604 43.8053 158.195C44.0484 153.972 42.6384 149.907 39.8349 146.748C37.0314 143.589 33.1699 141.715 28.9619 141.471C28.6539 141.453 28.3463 141.445 28.0415 141.445Z" fill="#FFB400"/>
</g>
<g clip-path="url(#clip3_20_1297)">
<path d="M105.433 202.57L99.2828 201.436C98.5805 201.306 98.0166 200.781 97.8249 200.087C97.3908 198.515 96.8156 197 96.1129 195.556C95.7827 194.878 95.8937 194.066 96.3871 193.498L100.172 189.141C101.171 187.992 101.164 186.271 100.157 185.13L96.9526 181.495C96.6033 181.099 96.1715 180.816 95.7045 180.651C95.7041 180.651 95.7038 180.651 95.7034 180.651C95.3507 180.5 93.4273 180.084 92.7251 180.045C92.7251 180.045 92.0206 181.433 92.0266 181.445C92.028 181.448 92.0659 181.524 92.1224 181.637L88.073 184.465C87.4714 184.885 86.6834 184.907 86.0557 184.527C84.6149 183.657 83.0819 182.921 81.4731 182.34C80.7728 182.087 80.2853 181.442 80.2369 180.693L79.8877 175.281C79.8116 174.102 79.0726 173.111 78.0438 172.68C78.0426 172.68 78.0417 172.679 78.0406 172.679C78.0396 172.678 78.0385 172.678 78.0376 172.678C77.9412 172.637 77.8424 172.602 77.7412 172.572C77.0168 172.346 75.9562 172.207 75.2559 172.062L75.0761 172.338L72.2584 172.174C70.7471 172.085 69.4077 173.149 69.1359 174.653L68.1717 179.989C68.0386 180.725 67.4844 181.311 66.7622 181.48C64.8951 181.917 63.1008 182.557 61.4049 183.378C60.7327 183.704 59.9337 183.595 59.3733 183.098L55.8412 179.967C55.4328 179.605 54.9514 179.375 54.4498 179.274C53.569 179.037 52.7664 178.864 51.9155 178.783C51.4592 178.739 51.4784 179.507 51.5943 180.229L48.2712 183.219C47.1408 184.236 46.9383 185.945 47.7991 187.203L50.4828 191.124C50.907 191.744 50.9195 192.557 50.5236 193.196C49.4294 194.961 48.5349 196.869 47.8744 198.891C47.6358 199.621 46.9872 200.135 46.2275 200.185L42.1186 200.456C40.6081 200.555 39.4078 201.776 39.3204 203.303L39.0424 208.162C38.9551 209.688 40.008 211.041 41.4973 211.316L45.8479 212.118C46.5686 212.251 47.1428 212.799 47.3187 213.518C47.8425 215.657 48.6263 217.698 49.6359 219.602C49.9996 220.288 49.8974 221.131 49.3891 221.716L46.7585 224.744C45.76 225.893 45.7663 227.614 46.7731 228.756L49.7378 232.118C49.5984 232.223 49.4887 232.305 49.4887 232.305L49.5587 232.927C50.0857 233.021 51.1285 233.294 51.8361 233.379C51.8649 233.383 51.8939 233.386 51.9229 233.389C51.9319 233.39 51.9417 233.391 51.9505 233.392C51.9536 233.392 51.9564 233.392 51.9594 233.393C52.6333 233.451 53.3282 233.282 53.9217 232.867L57.7669 230.182C58.3568 229.77 59.1272 229.741 59.7501 230.1C61.5192 231.118 63.4208 231.936 65.4262 232.518C66.1765 232.736 66.7077 233.411 66.7585 234.197L67.043 238.605C67.0822 239.213 67.2982 239.771 67.6391 240.228L67.2155 240.931C67.7566 241.087 68.8353 241.371 69.6304 241.418C69.658 241.419 69.6846 241.419 69.7106 241.418C69.7606 241.424 69.8111 241.428 69.8618 241.431L74.6721 241.712C76.1834 241.8 77.5228 240.737 77.7946 239.233L78.7509 233.941C78.8766 233.245 79.3787 232.679 80.0504 232.479C81.8435 231.946 83.5599 231.222 85.1752 230.329C85.8633 229.949 86.7119 230.038 87.3013 230.56L90.6976 233.571C90.4676 233.866 90.2399 234.163 90.2399 234.163C90.5923 234.208 91.819 234.468 92.3324 234.578C92.4075 234.597 92.4831 234.614 92.5591 234.627C92.5598 234.627 92.5613 234.627 92.5613 234.627L92.5615 234.627C93.4338 234.777 94.3583 234.536 95.0612 233.903L98.6592 230.666C99.7896 229.649 99.9921 227.941 99.1313 226.683L95.73 221.713C95.3306 221.13 95.2931 220.37 95.6282 219.746C96.4174 218.278 97.0734 216.723 97.5787 215.097C97.8074 214.362 98.4656 213.847 99.2273 213.797L104.812 213.43C106.322 213.33 107.523 212.109 107.61 210.582L107.888 205.724C107.976 204.197 106.923 202.844 105.433 202.57ZM70.4271 210.135C68.1925 210.135 66.381 208.305 66.381 206.048C66.381 203.791 68.1925 201.961 70.4271 201.961C72.6617 201.961 74.4733 203.791 74.4733 206.048C74.4733 208.305 72.6617 210.135 70.4271 210.135Z" fill="#F04E23"/>
<path d="M103.206 202.124L97.0556 200.99C96.3533 200.86 95.7894 200.335 95.5977 199.641C95.1636 198.069 94.5883 196.553 93.8856 195.11C93.5555 194.432 93.6665 193.619 94.1599 193.051L97.9449 188.695C98.9434 187.546 98.9371 185.825 97.9303 184.683L94.7254 181.049C93.7185 179.907 92.0269 179.703 90.7817 180.572L85.8459 184.019C85.2443 184.439 84.4563 184.46 83.8287 184.081C82.3879 183.211 80.8549 182.475 79.2461 181.894C78.5458 181.641 78.0582 180.996 78.0099 180.246L77.6605 174.835C77.5621 173.309 76.353 172.097 74.8417 172.008L70.0315 171.728C68.5202 171.639 67.1808 172.703 66.909 174.207L65.9448 179.543C65.8117 180.279 65.2575 180.865 64.5353 181.034C62.6682 181.471 60.8739 182.111 59.178 182.932C58.5058 183.258 57.7067 183.149 57.1464 182.652L53.6142 179.521C52.4764 178.513 50.7727 178.519 49.6423 179.536L46.0443 182.773C44.9139 183.79 44.7114 185.499 45.5722 186.757L48.2558 190.678C48.68 191.298 48.6926 192.111 48.2967 192.75C47.2024 194.515 46.308 196.423 45.6474 198.445C45.4088 199.175 44.7603 199.689 44.0006 199.739L39.8917 200.01C38.381 200.109 37.1808 201.33 37.0935 202.857L36.8155 207.716C36.7282 209.242 37.7811 210.595 39.2704 210.87L43.621 211.672C44.3418 211.805 44.9158 212.353 45.0918 213.072C45.6156 215.211 46.3994 217.252 47.409 219.156C47.7726 219.842 47.6704 220.685 47.1622 221.27L44.5316 224.298C43.5331 225.447 43.5394 227.168 44.5462 228.31L47.751 231.944C48.758 233.086 50.4496 233.291 51.6948 232.421L55.54 229.736C56.1299 229.324 56.9002 229.295 57.5231 229.653C59.2922 230.672 61.1938 231.489 63.1991 232.072C63.9494 232.29 64.4806 232.964 64.5314 233.751L64.8158 238.159C64.9143 239.685 66.1235 240.897 67.6347 240.985L72.445 241.266C73.9563 241.354 75.2957 240.291 75.5675 238.786L76.5238 233.495C76.6495 232.799 77.1516 232.233 77.8234 232.033C79.6165 231.499 81.3328 230.775 82.9482 229.883C83.6363 229.503 84.4848 229.592 85.0743 230.114L88.8623 233.472C90.0001 234.48 91.7038 234.474 92.8342 233.457L96.4322 230.22C97.5626 229.203 97.7651 227.494 96.9043 226.237L93.503 221.267C93.1036 220.683 93.066 219.923 93.4012 219.3C94.1904 217.831 94.8464 216.277 95.3517 214.651C95.5804 213.915 96.2386 213.401 97.0003 213.351L102.585 212.983C104.095 212.884 105.296 211.663 105.383 210.136L105.661 205.277C105.749 203.751 104.696 202.398 103.206 202.124ZM70.4269 210.134C68.1923 210.134 66.3808 208.305 66.3808 206.048C66.3808 203.79 68.1923 201.961 70.4269 201.961C72.6616 201.961 74.4731 203.79 74.4731 206.048C74.4731 208.305 72.6616 210.134 70.4269 210.134Z" fill="#FFB400"/>
<path d="M71.4264 188.997C61.876 188.439 53.6864 195.807 53.1345 205.454C52.5825 215.1 59.8773 223.372 69.4277 223.93C78.9782 224.487 87.1678 217.119 87.7197 207.473C88.2716 197.826 80.9769 189.554 71.4264 188.997ZM70.4271 210.135C68.1925 210.135 66.381 208.305 66.381 206.048C66.381 203.791 68.1925 201.961 70.4271 201.961C72.6618 201.961 74.4733 203.791 74.4733 206.048C74.4733 208.305 72.6618 210.135 70.4271 210.135Z" fill="#F04E23"/>
<path d="M70.4537 227.096C70.053 227.096 69.6518 227.084 69.2485 227.061C63.8016 226.743 58.8033 224.301 55.1743 220.186C51.5454 216.071 49.7202 210.775 50.035 205.273C50.3497 199.771 52.7668 194.723 56.841 191.057C60.9152 187.392 66.1586 185.548 71.6055 185.866C77.0524 186.184 82.0507 188.625 85.6796 192.741C89.3086 196.856 91.1338 202.152 90.819 207.654C90.5042 213.155 88.0872 218.204 84.013 221.869C80.2405 225.264 75.4646 227.096 70.4537 227.096ZM70.4145 186.555C60.0617 186.555 51.3551 194.744 50.7503 205.315C50.4466 210.623 52.2077 215.734 55.7094 219.705C59.2111 223.675 64.0341 226.031 69.2899 226.338C74.5461 226.644 79.6052 224.866 83.5365 221.329C87.4677 217.792 89.8 212.921 90.1037 207.612C90.7307 196.653 82.4139 187.222 71.5641 186.588C71.1795 186.566 70.7952 186.555 70.4145 186.555Z" fill="#F04E23"/>
</g>
<g clip-path="url(#clip4_20_1297)">
<path d="M260.933 43.2481C259.045 42.5408 257.075 42.0772 255.069 41.8684C253.819 41.7213 252.562 41.6372 251.303 41.6162C251.236 40.3849 251.14 39.154 250.999 37.9079C250.788 35.9266 250.412 33.9666 249.872 32.0486C249.841 31.9371 249.781 31.8356 249.7 31.7537C249.618 31.6719 249.516 31.6124 249.405 31.5811C249.232 31.529 249.045 31.5479 248.886 31.6337C248.726 31.7194 248.607 31.8649 248.555 32.0383L248.553 32.0486C248.013 33.9666 247.636 35.9266 247.426 37.9079C247.285 39.1612 247.181 40.4228 247.122 41.6755C245.869 41.7351 244.608 41.8387 243.356 41.9796C241.375 42.1903 239.416 42.5675 237.499 43.1072C237.39 43.1437 237.291 43.205 237.21 43.2862C237.129 43.3675 237.068 43.4665 237.032 43.5754C237.006 43.6612 236.997 43.7513 237.006 43.8405C237.015 43.9296 237.042 44.0162 237.084 44.0951C237.126 44.174 237.184 44.2438 237.253 44.3005C237.323 44.3571 237.403 44.3995 237.489 44.4253L237.499 44.4284C239.416 44.968 241.375 45.345 243.356 45.5556C244.586 45.6965 245.817 45.793 247.062 45.8598C247.083 47.1192 247.167 48.3767 247.314 49.6277C247.523 51.6335 247.987 53.6046 248.694 55.4932C248.722 55.5655 248.765 55.6312 248.819 55.6861C248.874 55.741 248.94 55.7839 249.012 55.8122C249.153 55.8663 249.309 55.8631 249.448 55.8036C249.586 55.744 249.696 55.6326 249.753 55.4932C250.454 53.6023 250.917 51.6317 251.133 49.6266C251.281 48.3954 251.347 47.1641 251.377 45.918C252.616 45.9098 253.854 45.8282 255.084 45.6734C257.088 45.4578 259.058 44.9944 260.948 44.2937C261.053 44.2483 261.142 44.1733 261.205 44.0777C261.268 43.9822 261.301 43.8704 261.301 43.7561C261.301 43.6418 261.268 43.53 261.205 43.4344C261.142 43.3389 261.053 43.2638 260.948 43.2185L260.933 43.2481Z" fill="#FFB400"/>
</g>
<g clip-path="url(#clip5_20_1297)">
<path d="M270.091 20.4211C268.667 19.888 267.182 19.5386 265.671 19.3812C264.728 19.2703 263.781 19.2069 262.832 19.1911C262.782 18.2631 262.709 17.3353 262.603 16.3961C262.444 14.9027 262.16 13.4254 261.754 11.9797C261.73 11.8957 261.685 11.8192 261.623 11.7575C261.562 11.6958 261.485 11.651 261.401 11.6273C261.271 11.5881 261.13 11.6024 261.01 11.667C260.89 11.7316 260.8 11.8413 260.761 11.9719L260.759 11.9797C260.352 13.4254 260.068 14.9027 259.909 16.3961C259.803 17.3407 259.725 18.2916 259.68 19.2358C258.736 19.2807 257.786 19.3588 256.842 19.4651C255.349 19.6238 253.872 19.9081 252.427 20.3149C252.345 20.3424 252.271 20.3886 252.21 20.4499C252.149 20.5111 252.103 20.5857 252.075 20.6678C252.056 20.7325 252.049 20.8004 252.056 20.8676C252.063 20.9348 252.083 21 252.115 21.0595C252.147 21.119 252.19 21.1716 252.242 21.2143C252.295 21.257 252.355 21.289 252.42 21.3084L252.427 21.3107C253.872 21.7174 255.349 22.0017 256.842 22.1604C257.769 22.2666 258.697 22.3393 259.636 22.3897C259.651 23.3389 259.715 24.2867 259.826 25.2296C259.983 26.7415 260.332 28.2271 260.865 29.6507C260.886 29.7051 260.919 29.7546 260.96 29.796C261.001 29.8374 261.051 29.8698 261.105 29.8911C261.211 29.9318 261.329 29.9295 261.433 29.8846C261.538 29.8396 261.621 29.7557 261.664 29.6507C262.192 28.2254 262.541 26.7401 262.703 25.2288C262.815 24.3008 262.865 23.3727 262.888 22.4335C263.822 22.4274 264.755 22.3658 265.682 22.2492C267.192 22.0867 268.677 21.7373 270.102 21.2092C270.181 21.175 270.248 21.1185 270.295 21.0465C270.343 20.9745 270.368 20.8902 270.368 20.804C270.368 20.7179 270.343 20.6336 270.295 20.5616C270.248 20.4896 270.181 20.433 270.102 20.3988L270.091 20.4211Z" fill="#FFB400"/>
</g>
<defs>
<clipPath id="clip0_20_1297">
<rect width="202.731" height="136.544" fill="white" transform="translate(34.272 66.912)"/>
</clipPath>
<clipPath id="clip1_20_1297">
<rect width="83.4133" height="73.984" fill="white" transform="translate(166.645 36.2667)"/>
</clipPath>
<clipPath id="clip2_20_1297">
<rect width="54.0373" height="52.5867" fill="white" transform="translate(1.99463 131.285)"/>
</clipPath>
<clipPath id="clip3_20_1297">
<rect width="71.0827" height="69.9947" fill="white" transform="translate(36.8107 171.723)"/>
</clipPath>
<clipPath id="clip4_20_1297">
<rect width="24.2987" height="24.2987" fill="white" transform="translate(237.003 31.552)"/>
</clipPath>
<clipPath id="clip5_20_1297">
<rect width="18.3147" height="18.3147" fill="white" transform="translate(252.053 11.6053)"/>
</clipPath>
</defs>
</svg>
