<svg width="260" height="205" viewBox="0 0 260 205" fill="none" xmlns="http://www.w3.org/2000/svg">
<g clip-path="url(#clip0_13_1297)">
<path fill-rule="evenodd" clip-rule="evenodd" d="M123.649 4.32193V204.377H240.521V203.901C236.963 197.198 234.945 189.873 234.725 184.159C234.358 173.977 239.531 154.272 237.146 144.09C233.111 126.875 206.259 120.062 198.666 100.724C186.377 69.3711 221.336 29.1182 173.208 5.82362C167.081 2.85685 160.295 0.842383 153.325 0.219728C145.108 -0.512808 135.827 0.585995 128.014 2.96673C126.583 3.40626 125.153 3.84578 123.685 4.2853L123.649 4.32193Z" fill="#00AEE0"/>
<path fill-rule="evenodd" clip-rule="evenodd" d="M123.465 33.2937L176.179 63.6939V124.458L123.465 154.858L70.7515 124.458V63.6939L123.465 33.2937Z" fill="#F04E23"/>
<path fill-rule="evenodd" clip-rule="evenodd" d="M183.809 50.8379C184.469 51.2042 184.836 51.9001 184.836 52.6326V89.3693C184.836 90.1018 184.433 90.7977 183.809 91.164C183.149 91.5302 182.378 91.5302 181.718 91.164C172.804 86.0362 147.713 71.5687 142.284 68.4188C141.623 68.0525 141.256 67.3566 141.256 66.6241V29.8874C141.256 29.1549 141.66 28.459 142.284 28.0927C142.944 27.7264 143.714 27.7264 144.375 28.0927C153.289 33.2204 178.38 47.688 183.809 50.8379Z" fill="#FFB400"/>
<path fill-rule="evenodd" clip-rule="evenodd" d="M154.206 61.6794V71.8617L143.531 65.7084V55.5261L154.206 61.6794Z" fill="white"/>
<path fill-rule="evenodd" clip-rule="evenodd" d="M166.861 68.785V78.9672L156.187 72.8139V62.6317L166.861 68.785Z" fill="white"/>
<path fill-rule="evenodd" clip-rule="evenodd" d="M179.517 75.854V86.0362L168.842 79.8829V69.7007L179.517 75.854Z" fill="white"/>
<path fill-rule="evenodd" clip-rule="evenodd" d="M163.56 44.4282V63.6206L143.421 52.0099V32.8175L163.56 44.4282Z" fill="white"/>
<path fill-rule="evenodd" clip-rule="evenodd" d="M102.226 13.6251L123.062 25.6387V89.8454L67.3766 121.967L39.3139 105.778C39.0571 105.632 38.727 105.705 38.5436 105.961C38.3968 106.218 38.4702 106.547 38.7637 106.694L67.1198 123.029C67.1198 123.029 67.4866 123.139 67.67 123.029L123.905 90.6146C123.905 90.6146 124.199 90.3216 124.199 90.1384V25.309C124.199 25.1259 124.089 24.9428 123.905 24.8329L102.776 12.6728C102.519 12.5263 102.189 12.5996 102.042 12.8559C101.895 13.1123 101.969 13.442 102.226 13.5885V13.6251Z" fill="white"/>
<path fill-rule="evenodd" clip-rule="evenodd" d="M122.658 173.941L95.0357 158.008V142.844L150.721 110.723L185.57 130.831C185.827 130.977 186.157 130.904 186.34 130.648C186.487 130.391 186.413 130.062 186.12 129.915L151.014 109.661C151.014 109.661 150.647 109.551 150.464 109.661L94.2287 142.075C94.2287 142.075 93.9352 142.368 93.9352 142.551V158.374C93.9352 158.557 94.0452 158.74 94.2287 158.85L122.108 174.929C122.365 175.076 122.695 175.003 122.842 174.746C122.988 174.49 122.915 174.16 122.658 174.014V173.941Z" fill="white"/>
<path fill-rule="evenodd" clip-rule="evenodd" d="M159.158 164.784C159.158 163.392 158.021 162.256 156.627 162.256H132.269C130.875 162.256 129.738 163.392 129.738 164.784V182.694C129.738 184.086 130.875 185.221 132.269 185.221H156.627C158.021 185.221 159.158 184.086 159.158 182.694V164.784Z" fill="white"/>
<path fill-rule="evenodd" clip-rule="evenodd" d="M146.245 182.365C146.245 182.365 146.282 181.998 146.282 181.925C146.319 181.632 146.392 181.339 146.466 181.046C146.612 180.533 146.759 179.984 146.906 179.471C147.089 178.812 147.236 178.006 147.566 177.383C147.713 177.127 147.566 176.797 147.309 176.651C147.052 176.504 146.722 176.651 146.576 176.907C146.209 177.603 146.062 178.445 145.842 179.178C145.695 179.727 145.512 180.24 145.365 180.79C145.292 181.083 145.218 181.412 145.145 181.705C145.072 181.998 144.998 182.584 145.108 182.951C145.182 183.207 145.328 183.39 145.548 183.5C145.732 183.573 145.952 183.61 146.282 183.5C146.466 183.427 146.576 183.39 146.759 183.28C146.832 183.244 147.163 182.987 147.236 182.951C147.97 182.365 148.63 181.705 149.363 181.119C149.62 180.899 149.95 180.643 150.317 180.643C150.464 180.643 150.464 180.79 150.537 180.899C150.684 181.266 150.757 181.815 150.978 182.255C151.198 182.694 151.528 183.024 152.005 183.097C152.372 183.17 152.738 183.097 153.105 182.951C153.545 182.804 153.949 182.511 154.316 182.328C155.013 181.998 155.636 181.815 156.407 181.888C156.7 181.888 156.994 181.705 156.994 181.412C156.994 181.119 156.81 180.826 156.517 180.826C155.526 180.716 154.719 180.936 153.839 181.376C153.582 181.522 153.252 181.705 152.922 181.852C152.702 181.962 152.445 182.035 152.225 181.998C152.041 181.998 151.968 181.778 151.895 181.595C151.748 181.229 151.675 180.79 151.564 180.497C151.344 179.947 150.941 179.544 150.317 179.544C149.73 179.544 149.18 179.911 148.74 180.24C148.006 180.826 147.346 181.485 146.612 182.071C146.576 182.071 146.282 182.291 146.245 182.328V182.365Z" fill="#00AEE0"/>
<path fill-rule="evenodd" clip-rule="evenodd" d="M144.411 165.516C144.411 165.223 144.155 164.967 143.861 164.967H133.223C132.93 164.967 132.673 165.223 132.673 165.516V169.142C132.673 169.435 132.93 169.692 133.223 169.692H143.861C144.155 169.692 144.411 169.435 144.411 169.142V165.516ZM143.311 166.066V168.593H133.773V166.066H143.311Z" fill="#00AEE0"/>
<path fill-rule="evenodd" clip-rule="evenodd" d="M143.824 171.999H133.186C132.893 171.999 132.636 172.256 132.636 172.549C132.636 172.842 132.893 173.098 133.186 173.098H143.824C144.118 173.098 144.375 172.842 144.375 172.549C144.375 172.256 144.118 171.999 143.824 171.999Z" fill="#00AEE0"/>
<path fill-rule="evenodd" clip-rule="evenodd" d="M149.29 174.27H133.223C132.93 174.27 132.673 174.526 132.673 174.819C132.673 175.112 132.93 175.369 133.223 175.369H149.29C149.584 175.369 149.84 175.112 149.84 174.819C149.84 174.526 149.584 174.27 149.29 174.27Z" fill="#00AEE0"/>
<path d="M64.4786 2.27075H92.1377C93.7151 2.27075 94.999 3.55269 94.999 5.12764V25.4555C94.999 27.0304 93.7151 28.3124 92.1377 28.3124H64.4786C62.9012 28.3124 61.6173 27.0304 61.6173 25.4555V5.12764C61.6173 3.55269 62.9012 2.27075 64.4786 2.27075Z" fill="white"/>
<mask id="mask0_13_1297" style="mask-type:luminance" maskUnits="userSpaceOnUse" x="61" y="2" width="34" height="27">
<path d="M64.4786 2.27075H92.1377C93.7151 2.27075 94.999 3.55269 94.999 5.12764V25.4555C94.999 27.0304 93.7151 28.3124 92.1377 28.3124H64.4786C62.9012 28.3124 61.6173 27.0304 61.6173 25.4555V5.12764C61.6173 3.55269 62.9012 2.27075 64.4786 2.27075Z" fill="white"/>
</mask>
<g mask="url(#mask0_13_1297)">
<path fill-rule="evenodd" clip-rule="evenodd" d="M72.2922 34.4291H51.933C51.933 34.4291 62.0575 18.7528 66.8264 11.3542C67.3399 10.5118 68.257 10.0356 69.2474 10.0356C70.2379 10.0356 71.155 10.5484 71.6685 11.3542L79.4087 23.3678L84.3242 15.7494C84.8011 14.9803 85.6448 14.5407 86.5619 14.5407C87.479 14.5407 88.286 14.9803 88.7996 15.7494C93.4583 23.0015 103.876 39.1539 103.876 39.1539H69.2474L72.2922 34.4291Z" fill="#00AEE0"/>
</g>
<path fill-rule="evenodd" clip-rule="evenodd" d="M91.3674 0.366211C94.2654 0.366211 96.6131 2.71032 96.6131 5.60384C96.6131 8.49735 94.2654 10.8415 91.3674 10.8415C88.4694 10.8415 86.1217 8.49735 86.1217 5.60384C86.1217 2.71032 88.4694 0.366211 91.3674 0.366211Z" fill="#FFB400"/>
<path fill-rule="evenodd" clip-rule="evenodd" d="M202.591 122.37C202.591 122.37 202.261 122.297 202.114 122.37L190.339 129.183C190.339 129.183 190.082 129.439 190.082 129.585V143.174C190.082 143.174 190.155 143.504 190.339 143.577L202.114 150.389C202.114 150.389 202.444 150.463 202.591 150.389L214.366 143.577C214.366 143.577 214.623 143.32 214.623 143.174V129.585C214.623 129.585 214.549 129.256 214.366 129.183L202.591 122.37ZM202.334 123.359L213.632 129.878V142.918L202.334 149.437L191.036 142.918V129.878L202.334 123.359Z" fill="white"/>
<path fill-rule="evenodd" clip-rule="evenodd" d="M199.766 127.644L211.541 134.457V148.045L199.766 154.858L187.991 148.045V134.457L199.766 127.644Z" fill="white"/>
<path fill-rule="evenodd" clip-rule="evenodd" d="M36.526 107.646C36.526 107.39 36.3058 107.206 36.0857 107.206H4.68495C4.42817 107.206 4.24475 107.39 4.24475 107.646V118.451C4.24475 118.707 4.42817 118.89 4.68495 118.89H36.0857C36.3425 118.89 36.526 118.707 36.526 118.451V107.646ZM35.6456 108.085V117.975H5.16183V108.085H35.6456Z" fill="#FFB400"/>
<path fill-rule="evenodd" clip-rule="evenodd" d="M8.90357 104.093L0.0996094 88.1605H17.7442L8.94026 104.093H8.90357Z" fill="#FFB400"/>
<path fill-rule="evenodd" clip-rule="evenodd" d="M25.8512 87.2083C30.51 87.2083 34.2883 90.9808 34.2883 95.6324C34.2883 100.284 30.51 104.057 25.8512 104.057C21.1924 104.057 17.4141 100.284 17.4141 95.6324C17.4141 90.9808 21.1924 87.2083 25.8512 87.2083Z" fill="#FFB400"/>
<path fill-rule="evenodd" clip-rule="evenodd" d="M36.526 101.273V82.0439C36.526 81.7509 36.3059 81.5311 36.0124 81.5311H9.41713C9.12366 81.5311 8.90356 81.7509 8.90356 82.0439V86.0362C8.90356 86.3292 9.12366 86.549 9.41713 86.549C9.71059 86.549 9.9307 86.3292 9.9307 86.0362V82.5933H35.4622V101.31C35.4622 101.603 35.6823 101.822 35.9757 101.822C36.2692 101.822 36.4893 101.603 36.4893 101.31L36.526 101.273Z" fill="#FFB400"/>
<path fill-rule="evenodd" clip-rule="evenodd" d="M107.985 135.373H73.2091L88.7628 203.681H123.538L107.985 135.373Z" fill="#240142"/>
<path fill-rule="evenodd" clip-rule="evenodd" d="M81.9397 135.885H47.1641L48.9982 204.194H83.8106L81.9397 135.885Z" fill="#240142"/>
<mask id="mask1_13_1297" style="mask-type:luminance" maskUnits="userSpaceOnUse" x="47" y="135" width="37" height="70">
<path d="M81.9397 135.885H47.1641L48.9982 204.194H83.8106L81.9397 135.885Z" fill="white"/>
</mask>
<g mask="url(#mask1_13_1297)">
<path fill-rule="evenodd" clip-rule="evenodd" d="M76.0704 215.622C76.4373 213.827 83.0402 178.958 83.0402 178.958C83.0402 178.958 83.9573 183.647 83.994 184.599C84.0674 187.602 84.4342 187.895 84.6543 190.899C85.0211 196.393 85.498 201.887 86.0849 207.344C86.3784 209.908 87.2221 213.388 86.4151 215.915C85.6447 218.369 82.2699 218.296 80.2156 218.259L76.1071 215.585L76.0704 215.622Z" fill="black"/>
</g>
<path fill-rule="evenodd" clip-rule="evenodd" d="M99.1808 79.0406C80.5458 71.4955 65.7992 74.389 56.665 85.2305C47.5309 96.0721 46.2103 129.036 44.4495 144.126C42.432 161.341 118.146 150.316 110.516 138.376C97.9703 118.817 107.801 89.113 99.1808 79.004V79.0406Z" fill="#FFB400"/>
<mask id="mask2_13_1297" style="mask-type:luminance" maskUnits="userSpaceOnUse" x="44" y="74" width="68" height="80">
<path d="M99.1808 79.0406C80.5458 71.4955 65.7992 74.389 56.665 85.2305C47.5309 96.0721 46.2103 129.036 44.4495 144.126C42.432 161.341 118.146 150.316 110.516 138.376C97.9703 118.817 107.801 89.113 99.1808 79.004V79.0406Z" fill="white"/>
</mask>
<g mask="url(#mask2_13_1297)">
<path fill-rule="evenodd" clip-rule="evenodd" d="M106.591 86.952C102.923 87.6113 99.6211 92.1164 97.4935 94.7902C89.8634 104.276 88.8363 116.62 94.6689 127.315C95.9528 129.695 97.7136 131.747 99.401 133.834C100.318 134.933 101.455 135.885 102.042 137.204C103.436 140.427 103.033 143.943 102.739 147.35C102.519 149.987 102.006 153.173 104.903 154.492C105.527 154.785 106.187 154.968 106.848 155.078C107.655 155.224 108.498 155.261 109.305 155.224C112.093 155.114 114.918 154.528 117.523 153.649C119.32 153.063 121.007 152.294 122.621 151.269C135.461 142.918 135.057 124.311 131.866 111.162C129.848 102.885 126.253 93.5082 117.376 90.688C116.055 90.2851 114.698 90.1752 113.341 90.0653L106.554 86.952H106.591Z" fill="#FFB400"/>
</g>
<path fill-rule="evenodd" clip-rule="evenodd" d="M143.898 79.0406L124.015 102.006C124.015 102.006 109.305 81.9341 100.025 79.4435C94.0452 77.8319 84.4342 85.8532 88.2126 94.8634C92.7246 105.742 109.525 130.538 125.446 129.293C144.375 127.827 147.823 82.1539 147.823 82.1539C148.923 80.1394 149.95 78.3447 147.529 76.257C147.529 76.257 150.317 69.5909 148.813 69.6642C147.493 69.7374 143.934 79.0773 143.934 79.0773L143.898 79.0406Z" fill="#F2C9CD"/>
<mask id="mask3_13_1297" style="mask-type:luminance" maskUnits="userSpaceOnUse" x="87" y="69" width="63" height="61">
<path d="M143.898 79.0406L124.015 102.006C124.015 102.006 109.305 81.9341 100.025 79.4435C94.0452 77.8319 84.4342 85.8532 88.2126 94.8634C92.7246 105.742 109.525 130.538 125.446 129.293C144.375 127.827 147.823 82.1539 147.823 82.1539C148.923 80.1394 149.95 78.3447 147.529 76.257C147.529 76.257 150.317 69.5909 148.813 69.6642C147.493 69.7374 143.934 79.0773 143.934 79.0773L143.898 79.0406Z" fill="white"/>
</mask>
<g mask="url(#mask3_13_1297)">
<path fill-rule="evenodd" clip-rule="evenodd" d="M87.5889 116.034C89.2397 116.034 91.1839 115.118 92.6512 114.495C97.1266 112.664 101.272 110.1 105.05 107.06C108.645 104.203 111.947 100.98 114.624 97.2442C119.944 89.8822 123.282 77.7587 115.321 70.8363C114.074 69.7375 112.57 68.8951 111.029 68.2724C109.379 67.6498 107.655 67.2835 105.894 67.2102C103.143 67.1004 100.245 67.4666 97.5668 68.2724C89.0929 70.8363 82.7468 77.832 79.5553 85.8899C77.1342 91.9699 76.8041 98.1965 77.9046 104.606L87.5889 116.034Z" fill="#FFB400"/>
</g>
<path fill-rule="evenodd" clip-rule="evenodd" d="M80.2523 68.7484L73.9795 69.2612C75.08 71.8983 74.1996 73.7663 73.2458 75.4511C75.3735 76.8429 78.4182 76.4034 80.6559 74.8285C79.5187 72.3378 79.4453 70.7263 80.2523 68.7484Z" fill="#F2C9CD"/>
<mask id="mask4_13_1297" style="mask-type:luminance" maskUnits="userSpaceOnUse" x="73" y="68" width="8" height="9">
<path d="M80.2523 68.7484L73.9795 69.2612C75.08 71.8983 74.1996 73.7663 73.2458 75.4511C75.3735 76.8429 78.4182 76.4034 80.6559 74.8285C79.5187 72.3378 79.4453 70.7263 80.2523 68.7484Z" fill="white"/>
</mask>
<g mask="url(#mask4_13_1297)">
<path fill-rule="evenodd" clip-rule="evenodd" d="M72.6589 68.1624C72.879 68.5653 73.4293 68.8217 73.6127 69.2246C74.3097 70.9827 79.7021 73.6564 80.4725 73.803C80.876 73.8762 81.0961 73.803 81.4629 73.6198C81.9031 73.4001 82.1232 72.8873 82.2332 72.4844C82.5634 71.349 82.3433 70.1037 81.8664 69.0415C80.9493 66.9538 78.9318 65.3422 76.5474 65.5253C75.9971 65.5619 75.4835 65.6718 74.97 65.8916C74.1629 66.2212 73.8695 65.7451 73.3559 66.441L72.6589 68.1624Z" fill="black"/>
</g>
<path fill-rule="evenodd" clip-rule="evenodd" d="M77.1343 55.4896C80.5458 55.4896 83.5905 58.6762 84.4343 63.1812C85.3513 68.016 84.4343 72.3379 81.0227 72.3379C77.6112 72.3379 71.7786 69.6642 71.7786 65.0858C71.7786 60.5075 73.7228 55.4896 77.1343 55.4896Z" fill="#F2C9CD"/>
<path fill-rule="evenodd" clip-rule="evenodd" d="M81.2427 61.6062C85.3879 61.3132 86.8553 61.24 88.6161 57.9069C89.4598 56.332 89.9733 53.1821 89.3864 51.3507C88.7628 49.3729 86.195 48.677 84.4342 49.4461C83.297 49.9589 82.5266 50.9112 82.0865 52.0833C81.5729 51.3507 80.7292 50.9112 79.9221 50.5816C78.088 49.7758 76.1438 49.4461 74.2363 50.1421C72.9523 50.6182 71.6317 51.5705 71.6684 53.0722C71.2649 52.8891 70.788 53.1821 70.4579 53.4018C69.5041 54.0245 68.7705 54.9402 68.2569 55.9291C66.7896 58.7127 67.78 62.6684 71.1182 63.4742C70.4579 63.8038 70.1644 64.7195 69.9076 65.3788C69.2473 67.2468 69.3941 69.5542 71.1549 70.7995C71.8885 71.3123 72.7689 71.4955 73.6126 71.3489C74.1996 71.2757 74.7498 71.0559 75.2267 70.7629C75.6302 70.5432 76.4006 69.774 76.6207 69.3345C78.6016 65.4154 82.3799 68.4188 81.0226 62.3388L81.2427 61.5696V61.6062Z" fill="#240142"/>
<path fill-rule="evenodd" clip-rule="evenodd" d="M79.1518 63.8771C79.7387 63.7672 80.3623 64.4998 80.5824 65.5619C80.8025 66.6241 80.4724 67.5398 79.8855 67.6497C79.2985 67.7595 78.6749 67.027 78.4548 65.9648C78.2347 64.9027 78.5649 63.987 79.1518 63.8771Z" fill="#F2C9CD"/>
<path d="M260 204H39V205H260V204Z" fill="#240142"/>
<path d="M33.9365 203.645H12V205H33.9365V203.645Z" fill="#240142"/>
</g>
<defs>
<clipPath id="clip0_13_1297">
<rect width="260" height="205" fill="white"/>
</clipPath>
</defs>
</svg>
