<svg width="250" height="122" viewBox="0 0 250 122" fill="none" xmlns="http://www.w3.org/2000/svg">
<g clip-path="url(#clip0_456_1560)">
<path d="M79.9123 27.1226C79.4183 27.1226 78.8254 27.0238 78.3314 26.8262C76.3552 25.9369 75.4659 23.5655 76.3552 21.5893L84.9516 2.32136C85.8409 0.345165 88.2123 -0.544123 90.1885 0.345165C92.1647 1.23445 93.054 3.60589 92.1647 5.58208L83.5683 24.85C82.8766 26.2333 81.4933 27.1226 79.9123 27.1226Z" fill="white"/>
<path d="M3.92758 84.6297C2.34662 84.6297 0.864481 83.6416 0.271622 82.0607C-0.518856 79.9857 0.469241 77.713 2.54425 76.9225L21.2193 69.8082C23.2943 69.0178 25.5669 70.0059 26.3574 72.0809C27.1479 74.1559 26.1598 76.4285 24.0848 77.219L5.40973 84.3333C4.91568 84.5309 4.42163 84.6297 3.92758 84.6297Z" fill="white"/>
<path d="M89.1016 121.98C87.5206 121.98 86.0385 120.992 85.4456 119.411L78.3313 100.736C77.5408 98.6609 78.5289 96.3883 80.6039 95.5978C82.6789 94.8073 84.9516 95.7954 85.742 97.8704L92.8564 116.545C93.6468 118.62 92.6587 120.893 90.5837 121.684C90.0897 121.881 89.5956 121.98 89.1016 121.98Z" fill="white"/>
<path d="M75.7623 90.6575C74.1813 90.6575 72.6004 89.6694 72.0075 88.0885C69.6361 81.567 64.7944 76.4289 58.2729 73.4646C51.7515 70.5991 44.6372 70.4015 38.2146 72.9706C36.1396 73.761 33.8669 72.773 33.0765 70.7968C32.8788 70.3027 32.78 69.8087 32.78 69.3146C32.78 67.7337 33.6693 66.2515 35.2503 65.6587C49.5777 59.9277 65.7825 45.9955 69.8337 35.9169C70.6242 33.9407 72.9956 32.9526 74.9718 33.7431C76.5527 34.336 77.442 35.8181 77.442 37.3991C77.442 37.8931 77.3432 38.3872 77.1456 38.8812C72.9956 49.0586 74.0825 70.6979 79.3194 85.3218C79.517 85.717 79.517 86.2111 79.517 86.7051C79.517 88.2861 78.5289 89.867 76.948 90.4599C76.6516 90.5587 76.2563 90.6575 75.7623 90.6575ZM54.5182 63.9789C56.8896 64.4729 59.261 65.2634 61.5337 66.2515C63.7075 67.2396 65.7825 68.4253 67.6599 69.8087C66.9682 64.2753 66.6718 58.742 66.7706 53.6039C63.2134 57.161 59.0634 60.7182 54.5182 63.9789Z" fill="#2B65EC"/>
</g>
<g clip-path="url(#clip1_456_1560)">
<path d="M116.638 79.5549H93.1279V46.0649H100.148V74.1449H116.638V79.5549ZM135.718 80.0749C131.111 80.0749 127.465 78.9583 124.778 76.7249C122.091 74.4849 120.748 71.2349 120.748 66.9749V46.0649H127.768V66.4549C127.768 69.0149 128.461 70.9283 129.848 72.1949C131.235 73.4616 133.191 74.0949 135.718 74.0949C138.251 74.0949 140.201 73.4616 141.568 72.1949C142.941 70.9283 143.628 69.0149 143.628 66.4549V46.0649H150.648V66.9749C150.648 71.2349 149.311 74.4849 146.638 76.7249C143.971 78.9583 140.331 80.0749 135.718 80.0749ZM170.868 79.5549H156.828V46.0649H170.868C175.895 46.0649 179.685 47.3583 182.238 49.9449C184.785 52.5249 186.058 56.8649 186.058 62.9649C186.058 68.7183 184.801 72.9216 182.288 75.5749C179.775 78.2283 175.968 79.5549 170.868 79.5549ZM163.848 51.8949V74.1449H169.888C171.861 74.1449 173.525 73.8416 174.878 73.2349C176.231 72.6283 177.245 71.5183 177.918 69.9049C178.591 68.2983 178.928 65.9849 178.928 62.9649C178.928 59.9516 178.618 57.6483 177.998 56.0549C177.371 54.4549 176.401 53.3616 175.088 52.7749C173.768 52.1883 172.035 51.8949 169.888 51.8949H163.848ZM215.488 79.5549H191.468V46.0649H215.488V51.5249H198.488V60.1049H213.568V65.5149H198.488V74.1449H215.488V79.5549ZM227.918 79.5549H220.898V46.0649H226.978L242.838 68.3749V46.0649H249.858V79.5549H243.778L227.918 57.2449V79.5549Z" fill="white"/>
</g>
<defs>
<clipPath id="clip0_456_1560">
<rect width="93.128" height="121.98" fill="white"/>
</clipPath>
<clipPath id="clip1_456_1560">
<rect width="156.73" height="34.01" fill="white" transform="translate(93.1279 46.0649)"/>
</clipPath>
</defs>
</svg>
