<svg width="21" height="20" viewBox="0 0 21 20" fill="none" xmlns="http://www.w3.org/2000/svg">
<mask id="mask0_172_1845" style="mask-type:alpha" maskUnits="userSpaceOnUse" x="0" y="0" width="21" height="20">
<rect x="0.810059" width="20" height="20" fill="#D9D9D9"/>
</mask>
<g mask="url(#mask0_172_1845)">
<path d="M4.14323 18.3333C3.6849 18.3333 3.29253 18.1701 2.96615 17.8437C2.63976 17.5173 2.47656 17.125 2.47656 16.6666V7.49996C2.47656 7.04163 2.63976 6.64926 2.96615 6.32288C3.29253 5.99649 3.6849 5.83329 4.14323 5.83329H8.3099V3.33329C8.3099 2.87496 8.47309 2.4826 8.79948 2.15621C9.12587 1.82982 9.51823 1.66663 9.97656 1.66663H11.6432C12.1016 1.66663 12.4939 1.82982 12.8203 2.15621C13.1467 2.4826 13.3099 2.87496 13.3099 3.33329V5.83329H17.4766C17.9349 5.83329 18.3273 5.99649 18.6536 6.32288C18.98 6.64926 19.1432 7.04163 19.1432 7.49996V16.6666C19.1432 17.125 18.98 17.5173 18.6536 17.8437C18.3273 18.1701 17.9349 18.3333 17.4766 18.3333H4.14323ZM4.14323 16.6666H17.4766V7.49996H13.3099C13.3099 7.95829 13.1467 8.35065 12.8203 8.67704C12.4939 9.00343 12.1016 9.16663 11.6432 9.16663H9.97656C9.51823 9.16663 9.12587 9.00343 8.79948 8.67704C8.47309 8.35065 8.3099 7.95829 8.3099 7.49996H4.14323V16.6666ZM5.8099 15H10.8099V14.625C10.8099 14.3888 10.7439 14.1701 10.612 13.9687C10.48 13.7673 10.296 13.6111 10.0599 13.5C9.78212 13.375 9.50087 13.2812 9.21615 13.2187C8.93142 13.1562 8.62934 13.125 8.3099 13.125C7.99045 13.125 7.68837 13.1562 7.40365 13.2187C7.11892 13.2812 6.83767 13.375 6.5599 13.5C6.32378 13.6111 6.13976 13.7673 6.00781 13.9687C5.87587 14.1701 5.8099 14.3888 5.8099 14.625V15ZM12.4766 13.75H15.8099V12.5H12.4766V13.75ZM8.3099 12.5C8.65712 12.5 8.95226 12.3784 9.19531 12.1354C9.43837 11.8923 9.5599 11.5972 9.5599 11.25C9.5599 10.9027 9.43837 10.6076 9.19531 10.3645C8.95226 10.1215 8.65712 9.99996 8.3099 9.99996C7.96267 9.99996 7.66753 10.1215 7.42448 10.3645C7.18142 10.6076 7.0599 10.9027 7.0599 11.25C7.0599 11.5972 7.18142 11.8923 7.42448 12.1354C7.66753 12.3784 7.96267 12.5 8.3099 12.5ZM12.4766 11.25H15.8099V9.99996H12.4766V11.25ZM9.97656 7.49996H11.6432V3.33329H9.97656V7.49996Z" fill="#6B7280"/>
</g>
</svg>
