<svg width="18" height="21" viewBox="0 0 18 21" fill="none" xmlns="http://www.w3.org/2000/svg">
<path d="M4 8V5.5C4 2.76562 6.22656 0.5 9 0.5C11.7344 0.5 14 2.76562 14 5.5V8H15.25C16.6172 8 17.75 9.13281 17.75 10.5V18C17.75 19.4062 16.6172 20.5 15.25 20.5H2.75C1.34375 20.5 0.25 19.4062 0.25 18V10.5C0.25 9.13281 1.34375 8 2.75 8H4ZM5.875 8H12.125V5.5C12.125 3.78125 10.7188 2.375 9 2.375C7.24219 2.375 5.875 3.78125 5.875 5.5V8ZM2.125 18C2.125 18.3516 2.39844 18.625 2.75 18.625H15.25C15.5625 18.625 15.875 18.3516 15.875 18V10.5C15.875 10.1875 15.5625 9.875 15.25 9.875H2.75C2.39844 9.875 2.125 10.1875 2.125 10.5V18Z" fill="#6B7280"/>
</svg>
