<svg width="218" height="53" viewBox="0 0 218 53" fill="none" xmlns="http://www.w3.org/2000/svg">
<path d="M59.5397 0.185295C58.0438 0.574245 56.0092 1.65135 52.3291 3.92523C51.0127 4.73305 49.8757 5.4212 49.786 5.4212C49.5167 5.4212 43.1439 10.0886 41.4385 11.5248C38.5961 13.9482 32.9712 19.7526 31.2658 22.0265C30.3982 23.1634 29.3211 24.9287 28.8723 25.916C27.0771 29.8056 26.7779 31.6307 27.3763 34.7423C28.1243 38.7515 28.3337 39.5593 28.6928 39.9183C28.8723 40.0979 29.0219 40.5467 29.0219 40.9057C29.0219 41.2647 29.2014 41.6238 29.3809 41.6836C29.6203 41.7734 29.7699 42.4615 29.7699 43.6882C29.7699 45.3637 29.71 45.5731 29.0219 45.9621C27.5558 46.7699 26.2394 47.3085 25.7008 47.3085C25.4016 47.3085 24.8631 47.4281 24.4741 47.5777C22.4994 48.3257 20.0161 48.595 8.07826 49.3729C5.35558 49.5524 2.42348 49.8516 1.58573 50.061C0.149597 50.3602 0 50.4799 0 51.198C0 52.5743 2.69275 53.5018 4.21864 52.664C4.69736 52.4247 4.75719 52.2751 4.48792 51.946C4.18872 51.6169 4.3084 51.4972 4.99655 51.3476C5.44534 51.2578 6.10357 51.0783 6.43268 50.9885C6.7618 50.8988 9.0656 50.7193 11.519 50.5996C18.0714 50.2406 22.6191 49.7918 23.3073 49.4327C23.6364 49.2532 24.2647 49.1036 24.7434 49.1036C26.1795 49.1036 29.8297 47.6974 30.4879 46.8896C30.7871 46.5605 31.0564 46.5305 31.7446 46.7699C33.1508 47.2486 36.3521 46.8597 39.4638 45.8424C42.1266 44.9448 42.2762 44.9149 42.6652 45.4235C42.8746 45.7227 43.084 46.0518 43.084 46.1416C43.1139 46.6502 44.2509 47.5478 45.2682 47.9068C46.1957 48.206 46.824 48.206 48.2302 47.9068C49.2474 47.7273 50.2647 47.4581 50.534 47.3085C50.8032 47.1589 52.2394 46.5006 53.7054 45.8125C56.7572 44.3763 63.2497 41.175 65.8228 39.7987C66.0622 39.6491 66.7503 39.32 67.3188 39.0507C69.832 37.8838 70.4005 37.5547 71.0288 36.9264C71.3579 36.5374 71.8965 36.2383 72.1657 36.2383C72.435 36.2383 72.7641 36.1186 72.8539 35.9391C72.9437 35.7895 73.4523 35.6399 73.9609 35.6399H74.8585L73.8113 36.8366C71.2981 39.5892 70.9091 41.6836 72.4949 43.778C73.8412 45.5133 75.3372 45.9022 79.2567 45.5133C80.8125 45.3338 82.2486 45.0645 82.3982 44.9149C82.9966 44.3165 84.7319 44.5858 85.4799 45.3936C86.1082 46.0818 86.3775 46.1416 87.6042 46.0219C89.3694 45.8424 91.6134 45.2739 92.0023 44.885C92.1519 44.7354 92.5708 44.6157 92.9299 44.6157C93.3188 44.6157 93.6778 44.496 93.7676 44.3464C93.8574 44.2267 94.366 44.0173 94.9045 43.8976C95.7124 43.748 99.6019 42.3717 102.175 41.3246C102.504 41.2049 103.462 40.8458 104.269 40.5766C105.107 40.3073 106.184 39.8884 106.723 39.6491C107.231 39.4097 107.74 39.2302 107.83 39.2302C107.92 39.2302 108.578 38.9908 109.296 38.6617C109.984 38.3625 111.57 37.7342 112.796 37.2854C114.023 36.8366 115.489 36.2682 116.028 36.0587C116.536 35.8194 117.494 35.4304 118.122 35.1611C118.72 34.9218 119.558 34.5628 119.977 34.3832C120.396 34.2037 120.964 33.9644 121.234 33.8148C123.238 32.7975 122.61 34.3533 119.947 36.9862C117.254 39.6491 113.514 44.4362 112.138 46.9793C111.63 47.9068 111.121 48.7147 110.971 48.7446C110.193 49.0438 110.971 52.0956 111.839 52.0956C112.378 52.0956 113.096 50.839 113.096 49.9114C113.096 48.8044 113.664 47.7572 116.088 44.3165C118.361 41.0852 122.819 36.2383 123.478 36.2383C123.896 36.2383 125.452 36.8366 126.619 37.4649C126.888 37.5846 128.384 37.8838 129.91 38.0633C131.436 38.2429 132.872 38.4822 133.082 38.6019C133.351 38.7515 132.932 39.1704 131.795 39.9483C128.863 41.8631 127.756 43.0599 127.756 44.1968C127.756 45.0346 127.876 45.244 128.534 45.3936C129.462 45.633 132.394 45.3338 133.142 44.9149C133.441 44.7354 134.069 44.6157 134.548 44.6157C135.326 44.6157 137.241 44.0472 138.677 43.4488C139.006 43.2992 139.814 42.9402 140.472 42.6709C142.237 41.893 143.015 41.0852 143.015 39.9483C143.015 38.8412 142.058 37.9736 140.322 37.5248L139.275 37.2555L140.921 36.2083C141.818 35.6399 143.045 34.8919 143.613 34.5628C144.182 34.2636 144.87 33.8447 145.109 33.6652C145.349 33.4557 146.246 32.9471 147.054 32.4983C147.892 32.0794 149.238 31.3315 150.046 30.8228C150.884 30.3441 151.752 29.8654 151.991 29.7756C152.23 29.6859 152.679 29.4765 152.948 29.3269C154.654 28.4293 160.249 25.6767 162.163 24.7791C163.39 24.2106 165.215 23.4028 166.173 22.954C167.13 22.5052 168.267 22.1761 168.656 22.2359C169.344 22.3257 169.284 22.4454 167.579 24.4799C165.993 26.3349 164.587 27.771 159.77 32.3786C156.539 35.4903 154.654 38.0933 154.684 39.4995C154.714 40.2475 155.91 41.5041 157.317 42.2221C160.129 43.6882 166.921 43.778 182.21 42.5513C184.424 42.3717 186.907 42.1025 187.685 41.9229C188.463 41.7734 189.899 41.6238 190.886 41.6238C191.844 41.6238 193.28 41.5041 194.088 41.3246C194.865 41.175 197.02 40.9057 198.815 40.6963C200.64 40.5167 202.974 40.2475 204.051 40.0979C205.128 39.9782 207.402 39.7388 209.137 39.5593C210.872 39.3798 212.578 39.0806 212.967 38.931C213.356 38.7515 214.074 38.6318 214.612 38.6318C215.779 38.6318 218.143 37.7043 217.993 37.2854C217.844 36.8366 213.595 37.0162 210.483 37.5846C207.521 38.1531 205.038 38.4523 199.922 38.9011C198.067 39.0806 196.421 39.29 196.272 39.3798C196.122 39.4696 194.417 39.679 192.472 39.8286C190.527 40.0081 186.997 40.3372 184.603 40.5766C167.579 42.3119 157.077 41.6836 157.077 38.931C157.077 38.0334 158.633 36.2383 164.766 30.1048C169.015 25.8263 170.9 23.702 171.379 22.6548C172.635 20.0219 171.857 18.9747 169.284 19.9022C166.681 20.7998 159.381 24.2405 159.231 24.6295C159.172 24.7492 158.872 24.8689 158.573 24.8689C157.945 24.8689 156.18 25.7964 156.18 26.1255C156.18 26.2751 156 26.3648 155.791 26.3648C155.372 26.3648 151.303 28.3994 149.897 29.3269C149.478 29.5961 148.61 30.0748 147.952 30.404C147.294 30.7031 146.366 31.2417 145.857 31.6007C145.379 31.9298 144.691 32.3487 144.361 32.5282C143.763 32.8274 141.968 33.8447 138.288 35.8493C136.463 36.8666 136.343 36.8965 134.697 36.5973C133.77 36.4178 132.184 36.1784 131.197 36.0887C129.282 35.8792 127.936 35.5202 126.32 34.862L125.333 34.4431L126.559 33.3959C128.205 32.0196 136.253 26.664 136.642 26.664C136.822 26.664 137.031 26.5743 137.091 26.4247C137.151 26.305 137.839 25.8861 138.617 25.5271C139.694 24.9885 140.083 24.5996 140.203 24.0012C140.322 23.4028 140.741 22.9839 141.609 22.5351C144.99 20.7998 147.952 19.1243 148.849 18.4362C149.418 18.0173 149.956 17.6882 150.046 17.6882C150.525 17.6882 154.145 14.5466 154.384 13.9782C154.714 13.0207 154.145 11.7641 153.098 11.2555C150.615 10.0886 148.7 9.84928 141.369 9.84928C137.181 9.81936 133.381 9.96896 132.244 10.1485C131.167 10.3579 129.282 10.6571 128.055 10.8366C120.186 11.9736 115.788 13.5593 114.741 15.5639C114.322 16.4016 114.352 16.4914 115.34 17.5984C115.908 18.2267 116.776 19.3038 117.284 20.0219C117.793 20.74 118.361 21.2785 118.571 21.1888C119.289 20.9494 119.109 20.0518 118.092 18.6456C116.596 16.5812 116.566 16.3418 117.673 15.534C118.661 14.786 122.939 13.3199 124.764 13.0806C125.333 13.0207 126.948 12.7515 128.355 12.4523C135.864 11.0161 151.572 11.435 152.2 13.1105C152.41 13.679 150.704 15.1749 147.234 17.4488C145.708 18.4362 142.626 20.1117 136.882 23.0138C134.757 24.1209 132.932 25.0783 132.842 25.168C132.753 25.2578 132.094 25.6168 131.346 26.0058C127.876 27.7411 124.824 29.626 122.939 31.2118C122.191 31.8401 121.353 32.3487 121.084 32.3487C120.845 32.3487 120.546 32.4684 120.456 32.618C120.366 32.7676 119.917 32.977 119.468 33.0668C118.99 33.1865 118.092 33.5156 117.434 33.8148C116.267 34.3533 114.891 34.9218 112.348 35.8493C111.689 36.0887 110.911 36.4178 110.642 36.5674C110.343 36.717 109.864 36.8366 109.565 36.8366C109.266 36.8366 108.907 36.9563 108.757 37.1059C108.578 37.2256 107.8 37.5846 106.962 37.8838C106.154 38.1531 105.197 38.5121 104.868 38.6318C104.539 38.7515 103.611 39.0806 102.773 39.3798C101.966 39.6491 101.008 39.9782 100.679 40.1278C100.35 40.2774 99.3326 40.6065 98.435 40.9057C97.5375 41.175 96.5202 41.5041 96.1911 41.6537C95.862 41.7734 94.8447 42.1025 93.9471 42.3717C93.0495 42.6709 92.0323 43.0001 91.6732 43.1197C91.3142 43.2693 90.2969 43.4488 89.3994 43.5685C87.8435 43.778 87.7538 43.7181 87.2452 42.9701C86.8263 42.3119 86.557 42.1922 85.9287 42.3418C83.2958 43.0001 82.5478 43.1496 80.7826 43.5087C77.8205 44.0772 76.0254 43.9874 74.7388 43.1796C73.8113 42.5812 73.6019 42.3119 73.6019 41.5041C73.6019 38.7814 76.6537 35.6099 83.9241 30.763C85.2406 29.8953 86.5271 29.0875 86.7664 28.9678C87.0058 28.8481 87.6341 28.519 88.1128 28.2198C88.6215 27.9206 89.6986 27.2923 90.5064 26.8435C91.3441 26.3648 92.2118 25.8263 92.4511 25.6168C92.6905 25.4074 93.3786 24.9885 93.9471 24.7193C94.5156 24.4201 95.0541 24.0909 95.1439 24.0012C95.2337 23.9114 95.7124 23.6122 96.1911 23.3729C96.6997 23.1335 97.5674 22.595 98.1358 22.1761C98.7043 21.7572 99.572 21.2486 100.021 21.0392C100.47 20.8297 101.008 20.5605 101.218 20.3809C101.427 20.2014 101.936 19.8125 102.414 19.4534C103.372 18.7354 103.462 17.8079 102.624 17.5386C102.025 17.3591 99.2728 18.496 97.687 19.603C97.2083 19.9621 96.3706 20.4707 95.862 20.74C95.3533 21.0092 93.7975 22.0265 92.3913 22.9839C89.3395 25.0783 88.9805 25.3176 87.8136 25.946C87.3349 26.2152 85.1807 27.5915 83.0564 28.9977C80.9022 30.404 77.8205 32.229 76.175 33.0967C74.4995 33.9345 72.8838 34.7722 72.5547 34.9816C72.2256 35.1611 70.221 36.1485 68.0668 37.1658C63.908 39.1105 59.4201 41.2647 55.4707 43.1496C54.1542 43.8079 52.9275 44.3165 52.7779 44.3165C52.5984 44.3165 51.7607 44.6456 50.9229 45.0645C49.8159 45.603 48.7986 45.8424 47.3924 45.8723C45.2682 45.9322 45.3878 45.992 44.2808 43.8677C43.8021 42.9103 42.8148 42.5812 41.7676 43.0599C39.4039 44.1071 37.1301 44.6456 34.4971 44.8251C32.4925 44.9448 32.313 44.9149 32.313 44.3763C32.313 43.4788 33.3303 42.7906 37.4891 40.9057C38.4166 40.4868 39.9126 39.7987 40.7802 39.3798C41.6479 38.9609 42.5455 38.6318 42.8148 38.6318C43.084 38.6318 43.3832 38.5421 43.473 38.4523C43.7722 38.1232 46.7641 37.1658 47.4224 37.1358C47.7215 37.1358 48.5892 37.3453 49.3073 37.6445C50.2348 37.9736 50.6836 38.0334 50.9229 37.7941C52.3591 36.3579 47.5719 35.3706 44.3706 36.4178C42.1864 37.1059 39.0449 38.4523 38.9551 38.6916C38.8953 38.8412 38.626 38.931 38.3268 38.931C38.0576 38.931 37.5489 39.1404 37.2198 39.3798C36.9206 39.6192 36.4419 39.8286 36.2026 39.8286C35.9632 39.8286 34.8263 40.3073 33.6893 40.8758C31.7745 41.8332 31.595 41.8631 31.2359 41.3844C30.9966 41.1151 30.817 40.6065 30.817 40.2475C30.817 39.9183 30.7273 39.5294 30.6375 39.4396C30.2486 39.0806 29.351 36.0887 29.3211 35.2509C29.3211 34.7722 29.1715 34.1439 29.0219 33.8148C28.6628 33.1565 29.1416 29.7457 29.7998 28.2498C30.0391 27.7411 30.2187 27.2325 30.2187 27.1427C30.2187 26.664 33.5996 21.7871 35.2152 19.9321C38.0576 16.641 43.1439 11.9137 46.3752 9.58001C47.8412 8.50291 52.2992 5.72039 52.5386 5.72039C52.6283 5.72039 53.137 5.39128 53.6755 4.97241C54.2141 4.55354 54.8723 4.22442 55.1416 4.22442C55.4108 4.22442 55.71 4.07483 55.7998 3.92523C55.8896 3.74571 56.1888 3.62603 56.458 3.62603C56.7572 3.62603 56.4281 4.10474 55.6203 4.91257C53.107 7.33605 50.5639 11.0461 50.5639 12.2428C50.5639 12.8412 52.4488 16.7906 52.748 16.7906C53.2866 16.7906 53.3165 15.7135 52.8378 14.3671C52.4787 13.4097 52.389 12.6019 52.5087 11.9436C52.748 10.8965 54.244 8.71234 56.0691 6.76758C56.6675 6.13927 57.1462 5.51096 57.1462 5.39128C57.1462 5.24168 57.2958 5.12201 57.4753 5.12201C58.0737 5.12201 61.9333 1.35215 61.9333 0.753765C61.9333 0.0356979 60.9459 -0.203659 59.5397 0.185295ZM139.275 39.3499C139.963 39.5593 140.472 39.8884 140.472 40.1278C140.472 40.6065 137.54 42.2221 136.672 42.2221C136.403 42.2221 136.104 42.3418 136.014 42.4914C135.834 42.7607 134.578 43.0001 131.795 43.2992L130.299 43.4788L131.077 42.6709C131.526 42.2221 132.932 41.145 134.219 40.2475C136.732 38.572 136.582 38.6019 139.275 39.3499Z" fill="white"/>
</svg>
