<svg width="21" height="20" viewBox="0 0 21 20" fill="none" xmlns="http://www.w3.org/2000/svg">
<mask id="mask0_172_1865" style="mask-type:alpha" maskUnits="userSpaceOnUse" x="0" y="0" width="21" height="20">
<rect x="0.810059" width="20" height="20" fill="#D9D9D9"/>
</mask>
<g mask="url(#mask0_172_1865)">
<path d="M4.14323 19.1667V17.5H17.4766V19.1667H4.14323ZM4.14323 2.50004V0.833374H17.4766V2.50004H4.14323ZM10.8099 10.8334C11.5043 10.8334 12.0946 10.5903 12.5807 10.1042C13.0668 9.6181 13.3099 9.02782 13.3099 8.33337C13.3099 7.63893 13.0668 7.04865 12.5807 6.56254C12.0946 6.07643 11.5043 5.83337 10.8099 5.83337C10.1155 5.83337 9.52517 6.07643 9.03906 6.56254C8.55295 7.04865 8.3099 7.63893 8.3099 8.33337C8.3099 9.02782 8.55295 9.6181 9.03906 10.1042C9.52517 10.5903 10.1155 10.8334 10.8099 10.8334ZM4.14323 16.6667C3.6849 16.6667 3.29253 16.5035 2.96615 16.1771C2.63976 15.8507 2.47656 15.4584 2.47656 15V5.00004C2.47656 4.54171 2.63976 4.14935 2.96615 3.82296C3.29253 3.49657 3.6849 3.33337 4.14323 3.33337H17.4766C17.9349 3.33337 18.3273 3.49657 18.6536 3.82296C18.98 4.14935 19.1432 4.54171 19.1432 5.00004V15C19.1432 15.4584 18.98 15.8507 18.6536 16.1771C18.3273 16.5035 17.9349 16.6667 17.4766 16.6667H4.14323ZM5.60156 15C6.22656 14.2223 6.98351 13.6112 7.8724 13.1667C8.76128 12.7223 9.74045 12.5 10.8099 12.5C11.8793 12.5 12.8585 12.7223 13.7474 13.1667C14.6363 13.6112 15.3932 14.2223 16.0182 15H17.4766V5.00004H4.14323V15H5.60156ZM8.0599 15H13.5599C13.1571 14.7223 12.7231 14.5139 12.2578 14.375C11.7925 14.2362 11.3099 14.1667 10.8099 14.1667C10.3099 14.1667 9.82726 14.2362 9.36198 14.375C8.8967 14.5139 8.46267 14.7223 8.0599 15ZM10.8099 9.16671C10.5738 9.16671 10.3759 9.08685 10.2161 8.92712C10.0564 8.7674 9.97656 8.56949 9.97656 8.33337C9.97656 8.09726 10.0564 7.89935 10.2161 7.73962C10.3759 7.5799 10.5738 7.50004 10.8099 7.50004C11.046 7.50004 11.2439 7.5799 11.4036 7.73962C11.5634 7.89935 11.6432 8.09726 11.6432 8.33337C11.6432 8.56949 11.5634 8.7674 11.4036 8.92712C11.2439 9.08685 11.046 9.16671 10.8099 9.16671Z" fill="#6B7280"/>
</g>
</svg>
