<svg width="21" height="17" viewBox="0 0 21 17" fill="none" xmlns="http://www.w3.org/2000/svg">
<path d="M5.63379 8.875C5.63379 6.41406 7.6377 4.375 10.1338 4.375C12.5947 4.375 14.6338 6.41406 14.6338 8.875C14.6338 11.3711 12.5947 13.375 10.1338 13.375C7.6377 13.375 5.63379 11.3711 5.63379 8.875ZM10.1338 11.6875C11.6807 11.6875 12.9463 10.457 12.9463 8.875C12.9463 7.32812 11.6807 6.0625 10.1338 6.0625C10.0986 6.0625 10.0635 6.0625 10.0283 6.0625C10.0986 6.27344 10.1338 6.44922 10.1338 6.625C10.1338 7.89062 9.11426 8.875 7.88379 8.875C7.67285 8.875 7.49707 8.875 7.32129 8.80469C7.32129 8.83984 7.32129 8.875 7.32129 8.875C7.32129 10.457 8.55176 11.6875 10.1338 11.6875ZM3.34863 3.84766C5.00098 2.30078 7.28613 1 10.1338 1C12.9463 1 15.2315 2.30078 16.8838 3.84766C18.5361 5.35938 19.626 7.1875 20.1533 8.45312C20.2588 8.73438 20.2588 9.05078 20.1533 9.33203C19.626 10.5625 18.5361 12.3906 16.8838 13.9375C15.2315 15.4844 12.9463 16.75 10.1338 16.75C7.28613 16.75 5.00098 15.4844 3.34863 13.9375C1.69629 12.3906 0.606445 10.5625 0.079101 9.33203C-0.026367 9.05078 -0.026367 8.73438 0.079101 8.45312C0.606445 7.1875 1.69629 5.35938 3.34863 3.84766ZM10.1338 2.6875C7.81348 2.6875 5.9502 3.74219 4.50879 5.07812C3.1377 6.34375 2.22363 7.82031 1.73145 8.875C2.22363 9.92969 3.1377 11.4414 4.50879 12.707C5.9502 14.043 7.81348 15.0625 10.1338 15.0625C12.419 15.0625 14.2822 14.043 15.7236 12.707C17.0947 11.4414 18.0088 9.92969 18.501 8.875C18.0088 7.82031 17.0947 6.34375 15.7236 5.07812C14.2822 3.74219 12.419 2.6875 10.1338 2.6875Z" fill="#6B7280"/>
<path d="M3 2L17 16" stroke="#6B7280" stroke-width="1.5" stroke-linecap="round"/>
</svg>
