<svg xmlns="http://www.w3.org/2000/svg" xmlns:xlink="http://www.w3.org/1999/xlink" width="1024" zoomAndPan="magnify" viewBox="0 0 768 767.999994" height="1024" preserveAspectRatio="xMidYMid meet" version="1.0"><defs><clipPath id="c62099124a"><path d="M 548 124.148438 L 641 124.148438 L 641 240 L 548 240 Z M 548 124.148438 " clip-rule="nonzero"/></clipPath><clipPath id="e03ef24e26"><path d="M 124.148438 420 L 273 420 L 273 485 L 124.148438 485 Z M 124.148438 420 " clip-rule="nonzero"/></clipPath><clipPath id="51a00b0568"><path d="M 559 530 L 643.898438 530 L 643.898438 643.898438 L 559 643.898438 Z M 559 530 " clip-rule="nonzero"/></clipPath></defs><rect x="-76.8" width="921.6" fill="#ffffff" y="-76.799999" height="921.599993" fill-opacity="1"/><rect x="-76.8" width="921.6" fill="#ffffff" y="-76.799999" height="921.599993" fill-opacity="1"/><rect x="-76.8" width="921.6" fill="#0d0d0d" y="-76.799999" height="921.599993" fill-opacity="1"/><g clip-path="url(#c62099124a)"><path fill="#ffffff" d="M 570.140625 239.714844 C 567.382812 239.714844 564.074219 239.292969 561.316406 238.453125 C 550.289062 234.664062 545.324219 224.558594 550.289062 216.136719 L 598.261719 134.039062 C 603.230469 125.617188 616.460938 121.828125 627.492188 125.617188 C 638.519531 129.40625 643.484375 139.511719 638.519531 147.933594 L 590.542969 230.03125 C 586.683594 235.925781 578.964844 239.714844 570.140625 239.714844 Z M 570.140625 239.714844 " fill-opacity="1" fill-rule="nonzero"/></g><g clip-path="url(#e03ef24e26)"><path fill="#ffffff" d="M 146.066406 484.75 C 137.246094 484.75 128.972656 480.539062 125.664062 473.804688 C 121.25 464.960938 126.765625 455.277344 138.347656 451.910156 L 242.574219 421.597656 C 254.152344 418.230469 266.835938 422.4375 271.25 431.28125 C 275.660156 440.121094 270.144531 449.804688 258.566406 453.175781 L 154.339844 483.488281 C 151.582031 484.332031 148.824219 484.75 146.066406 484.75 Z M 146.066406 484.75 " fill-opacity="1" fill-rule="nonzero"/></g><g clip-path="url(#51a00b0568)"><path fill="#ffffff" d="M 621.425781 643.898438 C 612.601562 643.898438 604.332031 639.6875 601.023438 632.953125 L 561.316406 553.378906 C 556.90625 544.535156 562.417969 534.855469 574 531.484375 C 585.582031 528.117188 598.261719 532.328125 602.675781 541.167969 L 642.378906 620.742188 C 646.789062 629.582031 641.277344 639.269531 629.699219 642.636719 C 626.941406 643.476562 624.183594 643.898438 621.425781 643.898438 Z M 621.425781 643.898438 " fill-opacity="1" fill-rule="nonzero"/></g><path fill="#2b65ec" d="M 546.976562 510.433594 C 538.15625 510.433594 529.332031 506.222656 526.023438 499.488281 C 512.789062 471.699219 485.765625 449.804688 449.371094 437.175781 C 412.972656 424.964844 373.269531 424.125 337.425781 435.070312 C 325.84375 438.4375 313.160156 434.226562 308.75 425.808594 C 307.644531 423.703125 307.09375 421.597656 307.09375 419.492188 C 307.09375 412.753906 312.058594 406.441406 320.878906 403.914062 C 400.84375 379.496094 491.28125 320.128906 513.890625 277.1875 C 518.300781 268.765625 531.539062 264.554688 542.566406 267.925781 C 551.390625 270.449219 556.355469 276.765625 556.355469 283.5 C 556.355469 285.605469 555.804688 287.710938 554.699219 289.816406 C 531.539062 333.183594 537.605469 425.386719 566.832031 487.699219 C 567.933594 489.382812 567.933594 491.484375 567.933594 493.59375 C 567.933594 500.328125 562.417969 507.066406 553.597656 509.589844 C 551.945312 510.011719 549.734375 510.433594 546.976562 510.433594 Z M 428.414062 396.757812 C 441.648438 398.863281 454.886719 402.230469 467.570312 406.441406 C 479.703125 410.652344 491.28125 415.703125 501.761719 421.597656 C 497.898438 398.019531 496.242188 374.441406 496.792969 352.550781 C 476.945312 367.707031 453.78125 382.863281 428.414062 396.757812 Z M 428.414062 396.757812 " fill-opacity="1" fill-rule="nonzero"/></svg>